<?xml version="1.0" encoding="utf-8"?>
<!-- Generator: Adobe Illustrator 19.0.0, SVG Export Plug-In . SVG Version: 6.00 Build 0)  -->
<svg version="1.1" id="Layer_1_copy" xmlns="http://www.w3.org/2000/svg" xmlns:xlink="http://www.w3.org/1999/xlink" x="0px"
	 y="0px" viewBox="0 0 1088.4 371.8" style="enable-background:new 0 0 1088.4 371.8;" xml:space="preserve">
<g>
	<path d="M111.5,79.4c1.1,4.6-1.6,7.1-3.6,9.9c-3.2,4.4-2.9,5.6,1.5,8.8c1.3,1,2.4,3.2,2.4,4.8c-0.1,5.5-0.2,10.9,4.1,16.1
		c-1.8,0-2.9,0-3.9,0c-5.8-0.3-10.7,4.4-10.9,10.3c-0.2,6.9-0.5,13.9-0.6,20.8c-0.2,9.4,1.7,18.8,7.7,25.7
		c6.4,7.4,11.3,16.8,21.5,20.3c1.5,0.5,2.9,1.4,4.5,1.8c5.4,1.1,10.8,2,16.2,2.9c2.5,0.4,3.6-0.8,3.6-3.4c0-3.7,0.3-7.4,0.6-11.1
		c0.2-3.1-1.8-4.3-4.2-3.9c-4.1,0.6-8.2,2-12.3,2.7c-3.6,0.6-7.3,1.1-11,0.9c-2.8-0.1-3.5-2.8-3-5.1c0.4-2,1.5-4,2.9-5.5
		c1.5-1.7,3.6-2.9,5.6-4.1c0.6-0.4,1.7,0.1,2.2,0.1c-1.9,2.3-3.9,4.5-5.5,6.8c-1,1.4-1.5,3.2-2.2,4.9c1.4,0.5,3,1.6,4.3,1.3
		c3.4-0.6,6.7-1.6,10.1-2.6c2.9-0.9,5.7-1.8,8.4-2.9c1-0.4,2.4-1.6,2.5-2.5c0.1-5.8,0.2-11.6-0.6-17.4c-0.3-2.2-2.4-4.2-4.1-6.1
		c-7-7.7-14.1-15.4-21.2-23c-1.3-1.4-3.2-2.4-4.9-3.3c-3-1.6-3.3-2.2-2.4-6.6c12.1,8.1,22.1,18.1,31.6,29.6c0.8-3,1.2-4.8,1.7-6.6
		c0.4,0,0.9,0.1,1.3,0.1c0.3,1.2,0.6,2.4,0.8,3.6c1,8.9,2,17.7,3,26.6c0.3,2.3,2,4.7-0.2,7c-0.1,0.1,1.3,2.5,2,2.5
		c9.3-0.3,18.5,2.2,28-1c6.4-2.2,8.2-7.3,11-11.9c1.9-3,2.8-6.6,4.3-9.9c0.3-0.7,1.3-1.1,2-1.7c0.3,0.7,1,1.6,0.8,2.2
		c-1,2.8-2.2,5.5-3.4,8.2c-3,6.6-3.5,13.1,2,19.6c0.7-2.9,1.5-5.8,2.3-9.1c2.3,2.1,3.1,18.9,1.5,24.2c-0.9-1.7-1.7-2.8-2.2-4.1
		c-0.5-1.2-0.7-2.6-1-3.9c-0.4-0.2-0.7-0.4-1.1-0.7c-1.3,1.5-2.6,3.1-4,4.6c-1,1-2,1.9-3.2,2.7c-0.2,0.1-1.6-0.8-1.6-1.1
		c0.2-1.4,0.5-2.8,1.1-4.1c1.1-2.2,3.5-4.2,3.6-6.4c0.1-3.2-1.3-6.5-2.3-9.6c-0.1-0.3-2-0.5-2.6-0.1c-1.8,1.3-3.7,2.7-4.9,4.6
		c-3.6,5.4-9.1,8-14.7,10.1c-2.8,1.1-6,1.4-8.8,2.5c-1.2,0.5-2.5,2.3-2.5,3.5c0.2,6.1,0.9,12.1,1.4,18.2c0.1,1.2-0.3,2.5-0.1,3.7
		c0.4,1.9,1.1,3.8,1.7,5.7c0.1,0.4,0.6,0.9,0.6,1.3c-0.2,5.8-0.4,11.7-0.9,17.5c-0.2,2.4-1.5,3.6-4.1,2c-5.5-3.5-6-5-4.5-12.3
		c0.5-2.3,0.3-4.9-0.3-7.3c-0.7-2.9-3.1-2.3-5.2-1.7c-3.5,1-6.6,0.7-8.6-3.5c1.5,0.2,3.1,0.3,4.6,0.7c6,1.8,8.3,0.4,8.3-5.9
		c0-4.4-0.6-8.9-1.3-13.2c-0.1-0.8-2.5-1.7-3.7-1.6c-5.8,0.3-11.6,1.1-17.4,1.4c-1.3,0.1-3.6-0.6-4-1.5c-2.2-4.9-7.3-5.9-10.8-9
		c-1.1-1-2.1-2.1-3.1-3.1c-0.3-0.3-0.7-0.8-0.7-0.8c-3.8,2.5-6-3.5-10.6-1.1c1-2,1.4-2.9,1.8-3.8c1.5-2.9-0.5-4.7-2.1-6.6
		c-0.2-0.2-2.6,0.9-3,1.8c-2.6,4.9-5,10-7.1,15.1c-0.5,1.2-0.5,3.6,0.3,4.3c1.2,1,3.3,1.3,5,1.3c0.5,0,1-2.1,1.4-3.3
		c0.2-0.6-0.2-1.4,0-1.8c0.5-1,1.3-1.8,2-2.7c0.4,0.9,1.4,2,1.2,2.7c-1.3,4.3,0.2,7.6,4.1,10.1c-0.2,0.3-0.4,0.5-0.6,0.8
		c-2-0.2-4.3-1-5.8-0.3c-1.4,0.7-1.8,3.1-2.8,5c-0.2-0.2-0.9-0.5-1.1-1.1c-2.5-5.2-8.5-7.5-14-5.6c-2.1,0.7-4.3,0.9-6.5,1.3
		c-0.1-0.5-0.2-1-0.3-1.5c2.3-0.5,4.6-1.1,6.9-1.6c0-0.6-0.1-1.1-0.1-1.7c-1.8-0.1-3.6-0.2-5.4-0.5c-0.9-0.1-1.7-0.6-2.5-1
		c0.6-0.9,1.1-1.8,1.8-2.5c0.4-0.4,1.2-0.4,1.8-0.4c3.4,0.1,4.4-2,4.4-4.8c0-8.4-0.1-16.7-0.3-25.1c0-1.1-1.2-2.1-1.9-3.2
		c-1,0.7-2.8,1.3-2.9,2.1c-0.4,3.9-0.5,7.8-0.4,11.7c0,2.1,0.9,4.1,1,6.2c0,0.7-1.2,1.5-1.9,2.2c-0.5-0.8-1.2-1.6-1.3-2.4
		c-0.4-2.5-0.4-5-0.8-7.4c-0.1-0.8-1-1.5-1.6-2.3c-0.8,0.6-1.9,1-2.2,1.7c-1.5,3.9-2.8,7.8-4.3,12.2c-2.8-1.6,0.7-5.9-2.4-8.4
		c-3.5,3.2-5.2,7.4-6.5,12c-1.6,5.4,1.2,8.9,4.5,12.4c1.6-1.1,3.4-3.2,4.6-2.9c1.6,0.4,2.7,2.6,4.1,4.2c-2.3,4-6.5,3-9,2.1
		c-4.1-1.4-7.9-0.5-11.8-0.6c-1.7,0-3.4-0.3-5.2-0.4c-2.8-0.1-5.6-0.2-8.4-0.3c-0.5,0-1,0.3-1.5,0.2c-11.2-2.6-22.5-0.5-33.8-0.4
		c-0.6,0-1.6-0.6-1.7-1c-0.1-0.7,0.3-1.6,0.7-2.2c0.3-0.4,1.1-0.6,1.7-0.6c6.7,0,13.3,0,20-0.1c2.8,0,5.7-0.4,8.5-0.5
		c0.9,0,1.9-0.2,2.7,0.1c3.5,1.3,7.8-0.1,9.9-2.9c2.7-3.5,5.4-7.1,8.4-10.3c3.2-3.6,3.2-5-0.3-7c0.6-4.9,1.1-9.6,1.7-14.3
		c0.5-4-1.1-5.9-5.2-6.5c-2.3-0.3-4.7-0.6-6.9-1.3c-3.9-1.4-5.3-4.8-5.3-9c0-4.3-1.2-8.6-1.8-12.9c-0.6-4.1-1.3-8.2-1.6-12.3
		c-0.1-1.4,1.1-2.9,1.9-4.3c1.3-2.2,3-4.2,4-6.5c2-4.7,3.3-9.7,5.5-14.2c1-2.2,3.3-4.1,5.4-5.3c2.8-1.5,4.7-4.1,8.7-4.3
		c5.6-0.3,10.4,1.7,15,3.6c6.8,2.8,12.1,0.9,17.4-2.9c2.5-1.8,5.1-3.8,6.6-6.4c1.7-2.8,2.3-6.4,3.1-9.7c0.9-3.9,0.9-8.2,2.5-11.8
		c3.3-7.9,7.4-15.4,11.2-23.1c3.5-7.1,6.9-14.2,10.3-21.4c0.7-1.4,1.1-3,1.5-4.6c1.4-4.7,2.6-9.5,4.3-14.1c0.3-1,2.2-1.4,3.4-2
		c0.2,1.1,0.6,2.1,0.6,3.2c0,1.9-0.2,3.9-0.3,5.8c1.8-0.8,3.7-1.5,5.4-2.4c0.8-0.4,1.6-1.2,2.1-2c3-5.4,6.2-6.3,11.6-3.4
		c3.1,1.7,6.4,2.9,9.2,5c7.2,5.4,13,11.9,13.8,21.5c0.3,3.4,0.8,6.9,1.4,10.3c0.4,2.2,1.7,3.4,4,2c2-1.2,3.9-2.6,5.8-3.8
		c2.9-1.9,5.8-3.7,8.7-5.5c4.6-2.8,9.4-1.8,14.1-0.5c0.6,0.2,1.2,0.7,1.7,0.7c5.1-0.4,10.1-1,15.2-1.5c1.4-0.1,3-0.4,4.2,0.1
		c2.8,1.5,5.4,1.3,8.3,0.2c1.1-0.5,2.7,0,4,0.2c4.3,0.5,8.5,1.3,12.8,1.6c5.6,0.3,11.2-0.1,16.8,0.2c5.9,0.3,11.7,1.4,17.6,1.8
		c7.6,0.6,15.3,1,23,1.5c2.8,0.2,5.7,0.9,8.5,0.7c5.5-0.3,11-2.2,16.3-1.5c6.8,0.9,13.5,1.8,20.3,1.7c1.6,0,3.3,1.7,4.8,1.5
		c4.4-0.6,8.7-2.8,12.8,0.8c4.5-1.8,9-1.3,13.6-0.3c2.6,0.5,5.5-0.3,8.2,0.2c4.8,0.9,8.2-2.3,12.2-3.6c2.5-0.8,3.8-0.8,4.3,1.9
		c0.4,2.2,1.6,2.6,3.7,2.6c11.3-0.1,22.6-0.1,34,0c12.1,0.1,24.1,0.4,36.2,0.6c3.2,0.1,6.4,0.2,9.5,0.4c2.4,0.1,3.1-1.5,2.7-4.5
		c-0.6-4.8-0.9-9.6-1.1-14.4c-0.1-2.1,0.5-3.7,3-4.5c1.8-0.6,3.1-3.1,4.8-3.4c2-0.4,4.4,0.4,6.5,1.1c3.3,1.2,5.5,3.5,7.5,6.6
		c3,4.5,2.8,9.1,2.5,13.9c-0.2,3.5,1.2,4.2,4.3,4.2c6.3,0,12.6,0.5,18.9,0.7c1.9,0.1,3.9-0.4,5.9-0.5c3-0.2,5.9-0.6,8.9-0.6
		c4.9,0,9.8,0,14.2-2.9c0.9-0.6,2.2-0.4,3.2-0.8c9-3.3,17.8-7.1,25.8-12.6c4.4-3,9.6-4.8,14.4-7.2c1.5-0.8,2.8-2.1,4.4-2.7
		c1.1-0.4,2.6,0,3.9,0c-0.7,1-1.3,2-2,3c-0.6,0.8-2.2,1.7-2,2.2c1.4,6-3.9,5.4-6.7,6.9c-5.5,2.8-11.5,4.7-16.9,7.6
		c-7.9,4.2-15.3,9.2-23.9,12c-3.2,1-6.1,3.1-9.2,4.5c-2,0.9-4.1,1.8-6.2,2.3c-3,0.6-5.8,4.7-5.4,7.6c0.6,4,0.9,8,1,12
		c0.3,7.8,0.5,15.7,0.5,23.5c0.1,11.8-0.1,23.6,0,35.4c0.1,6,0.8,11.9,1,17.9c0.3,5.9,0.3,11.9,0.6,17.8c0.3,7.2,0.7,14.4,0.9,21.6
		c0,1.1-0.8,2.3-1.3,3.4c-0.7-1.1-1.9-2.3-1.9-3.4c0.1-3,0.6-6.1,1.1-9.1c0.5-2.6,0.2-4.1-2.9-4.8c-3.5-0.8-5.1-0.7-6.6,3.4
		c-1.5,4.1-5.3,7.2-9.7,9c-0.7,0.3-2.3-0.1-2.8-0.7c-2.6-3.6-4.1-7.6-2-12.1c0.6-1.2,1.2-2.6,1.1-3.9c-0.1-1.1-1.2-2.2-1.8-3.3
		c-0.9,0.8-2.2,1.5-2.7,2.6c-0.9,1.8-1.3,3.9-2,5.9c-0.6-0.1-1.2-0.2-1.8-0.3c-0.1-2.3-0.2-4.7-0.4-7c-0.1-1-0.2-2.9-0.6-3
		c-3.6-0.7-2.6-3.4-2.7-5.6c-0.1-6.4-0.2-12.8,0-19.1c0.2-5.8,0.9-11.6,5.9-15.6c0.4,0.1,0.8,0.2,1.1,0.3c-0.5,1.6-1.2,3.1-1.5,4.7
		c-0.2,1.2,0.1,2.5,0.1,3.8c1.2-0.7,3-1,3.4-2c3-6.5,3.1-13.2,0.9-19.9c-0.6-1.8-1.3-3.6-2-5.4c-0.1-0.3-0.9-0.3-1.9-0.5
		c-0.1,1.2-0.2,2.3-0.3,3.3c-0.2,1.5-0.2,3.3-0.9,4.5c-0.5,0.8-2.1,1.3-3.3,1.3c-0.5,0-1.5-1.5-1.5-2.3c-0.1-5.7-0.2-11.5,0-17.2
		c0-1.1,0.8-2.2,1.5-3.2c1.8-2.5,1.5-6.7-0.8-8.9c-0.5-0.5-0.7-1.3-1-1.9c-1.2-1.9-2.1-4-5.1-1.9c-1.1,0.8-3.1,0.4-4.8,0.5
		c-4.3,0.2-8.6,0.4-13,0.6c0.1-0.3,0.4-1,1.1-2.5c-3,0-5.7,0-8.3,0c-7.7,0.1-15.4,0.1-23.2,0.4c-3.9,0.1-7.7,0.9-11.6,1.3
		c-0.8,0.1-2,0.1-2.3-0.4c-2.6-3.7-6.6-2.7-9.4-1.6c-3.5,1.3-4.3,4.9-4.2,8.9c0.5,13.1,0.5,26.1,0.6,39.2c0,1.6-1,3.2-2.4,4.7
		c-0.9-17.2-1.7-34.3-0.9-52.2c-0.9-0.2-2.8-0.8-4.7-0.9c-5.5-0.2-11-0.2-16.5-0.3c-3-0.1-6.5-0.3-7.6,3.1c-0.8,2.5-0.1,5.5,0.8,8.1
		c-0.9,2.1-2,4.2-2.5,6.4c-0.5,2.1-0.3,4.3-0.4,6.4c-0.5,0-1,0-1.4,0c-0.2-2-0.6-4-0.6-6c0.2-5.4,0.7-10.7,0.8-16.1
		c0-0.7-1.7-1.9-2.7-1.9c-4.6-0.1-9.2,0-13.8,0.1c-3.5,0-6.9,0-10.4,0.2c-1.6,0.1-3.2,0.7-4.4,1c-2.7-0.4-5.1-1.2-7.6-1.2
		c-16.3,0.1-32.7,0.5-49,0.6c-3.2,0-6.4-0.9-9.5-1.4c-3.6-0.6-4.3,0.3-4.2,4c0.2,8.2,0.2,16.4,0.2,24.6c0,2.4-0.2,4.7-0.1,7.1
		c0.3,5.7,0.7,11.4,1.1,17.2c0.4,5.4,2.8,7.2,8.1,7.4c4.9,0.2,9.9,1.2,14.7,2.1c0.6,0.1,1.5,1.3,1.5,2c0,7-0.1,14-0.3,20.9
		c0,0.9-1.1,1.8-1.7,2.7c-0.7-0.9-1.8-1.6-2.1-2.6c-0.7-2,0.9-5.6-2.8-5.3c-3.2,0.2-2,3.4-2.2,5.5c-0.1,0.9-0.8,1.7-1.3,2.6
		c-3.9-2.5-5.4-5.6-5.3-9.8c0.1-4.5-0.4-9-0.8-13.4c-0.2-2.1-0.9-3.8-3.6-3.7c-2.8,0.1-3.9,1.1-3.8,4.1c0.3,8.3,0.3,16.7,0.3,25
		c0,1.2-0.2,2.3-0.4,3.5c-0.4,0.1-0.7,0.2-1.1,0.3c-0.5-0.9-1.3-1.8-1.3-2.8c-0.1-7.9-0.3-15.7,0-23.6c0.1-3.3-0.6-5.3-4-6
		c-4.2-0.9-6.4-0.1-7,3.6c-0.5,3.4,0.1,7,0.2,10.5c0.1,1.4,0.2,2.9,0.3,4.8c-1.5-0.7-2.5-1.1-3.7-1.6c-0.6,1.8-1.1,3.4-1.6,4.9
		c-0.3,0-0.6-0.1-0.9-0.1c0-1,0.2-1.9,0-2.9c-0.2-0.8-0.8-1.5-1.2-2.3c-0.7,0.6-1.9,1.3-1.9,1.9c-0.2,5.3-5.9,6.7-7.7,10.8
		c-0.2,0.4-2.2,0.1-4.4,0.1c9.1-6,6.5-13.7,5.3-21c-0.2-1.5-0.5-3-0.4-4.4c0.1-3-1.5-4.2-4.2-4.6c-2.1-0.3-3.5,0.4-3.4,2.8
		c0.1,5,0.4,10,0.4,15c0,4,0,8-0.3,12c-0.1,0.9-1,1.7-1.6,2.5c-0.6-0.9-1.7-1.8-1.7-2.7c-0.2-8.2-0.2-16.5-0.3-24.7
		c0-8.5,0-17-0.1-25.4c-0.1-12.1-0.3-24.2-0.4-36.3c0-5-0.5-5.4-5.4-5.6c-2-0.1-3.9-1.1-5.9-1.4c-2-0.3-4.1-0.2-6.2-0.4
		c-5.6-0.3-11.2-0.8-16.9-1c-1.2,0-2.6,0.4-3.7,1.1c-2.5,1.5-4.8,3.3-6.9,4.9c-1.1-0.8-1.4-1-1.4-1.2c-0.7-1.8-0.9-4.2-2.2-5.2
		c-0.7-0.6-3.2,0.9-4.9,1.3c-0.8,0.2-1.7-0.1-2.5-0.1c-2.3,4.3-7,5-10.4,1.6c-2-2-4.6-3.5-7-1.9c-2.4,1.7-4.5,4.5-3.3,8.1
		c0.6,1.9,1.6,3.6,2.3,5.5c2.6,7.5,5.2,14.9,7.8,22.4c1.7,5.1,3.4,10.2,4.9,15.4c0.3,1.1-0.2,2.5-0.4,3.7c-1.2-0.7-3-1.1-3.3-2.1
		c-1.3-3.9-2.4-7.8-3-11.9c-0.6-4.2-1.4-8.1-4.7-11c-3.5,3.5-3.7,6.3-0.3,9.8c-5.7-0.6-5.6,4.6-7.8,7.5c-1.5,1.9-2.4,4.4-2.9,6.8
		c-1.6,6.5-2.9,13.1-4.3,19.6c-0.4,1.9-0.5,3.6-2.9,4.2c-0.9,0.3-1.7,2-2.1,3.1c-0.9,3.1-1.2,3.5-5.7,3.6c3.1-7.9,6-15.5,9-23.1
		c3-7.7,3.6-16.4,10.1-22.7c-0.9-1.1-1.8-2.1-2.6-3.1c7.5-5.8,8.7-11.4,2.7-25.6c-5.5,6.1-10.7,11.8-16.3,18
		c3.9,2.3,7.3,4.4,10.7,6.4c-0.2,0.3-0.3,0.7-0.5,1c-2.9,0.3-5.5-0.9-7.8-2.7c-5.5-4.3-7.1-3.9-10.6,2.2c-1.1,2-3.2,3.5-4.7,5.2
		c-3.2,3.5-6.8,6.7-6.5,12.1c0,0.3-0.5,0.7-0.8,1c-0.4,0-0.8,0-1.2-0.1c-0.1-4.6-1.3-9.5-0.1-13.6c1-3.3,4.7-5.9,7.5-8.5
		c5.8-5.4,12-10.3,19.6-13.2c1-0.4,1.7-1.8,2.2-2.9c1.1-2.3,1.6-5.1,3.1-7.1c4.7-6.2,4.5-12.8,2.6-19.7c-0.6-2.3-1.1-4.8-2.4-6.6
		c-1.4-1.8-3.7-3.2-5.8-4.1c-2.3-1-3.1-1.6-1.5-4c0.8-1.3,1.2-3.3,0.9-4.8c-1.8-9.3-5-17.9-10.2-25.9c-4.1-6.1-14.3-9.8-20.2-6.3
		c-4,2.4-7.6,5.4-11.2,8.5c-1.3,1.1-1.5,3.2-2.5,4.7c-3.5,5.2-5.1,11.1-6,17.2c-1.5,10.2-2.7,20.4-4.2,30.7c-0.1,1-1.2,1.9-1.8,2.8
		c-0.6-1-1.8-2-1.7-3c0.2-3.9,0.6-7.8,1.2-11.7c0.6-4,1.4-8.1,2.2-12.1c0.4-1.8,1.1-3.5,1.4-5.4c0.1-0.8-0.4-1.7-0.6-2.6
		c-0.7,0.5-1.8,0.7-2.1,1.4c-2.9,5.9-5.3,12.1-8.6,17.8c-3.5,6-5.4,12.3-5.9,19.2c-0.3,4.9,0,5.2,4.6,3.8
		C109.5,79.6,110.4,79.5,111.5,79.4z M74.4,143.3c2.5,0.8,8.9-2.2,9-5.1c0.3-5.1-5.3-4.3-8.4-6.7c-0.6,2.8-0.7,5.5-0.6,8.1
		c0,1.3,0,2.5,0.1,3.8c-2.8,2.1-3.3,6.2-0.1,9.9C74.4,150,74.4,146.7,74.4,143.3z M200.6,41.4c-2.2-0.6-3.7-0.4-5.2,1.9
		c-1.7,2.7-4.7,4.8-7.8,3c-3.3-1.9-4.1-0.3-3.9,2.2c0.4,4.3,0.7,8.8,2.2,12.7c2,5.3,6.5,6.5,9.7,3.2c3.6-3.6,6.8-7.5,10.6-10.9
		c1.9-1.7,3.4-4.4,7.3-4.3c-3.9,4-8.8,6.6-7.6,12.6c0.3,1.5,1.4,4.1,2.1,4c1.8,0,3.9-0.9,5.3-2c1.7-1.4,2.6-3.5,4.1-5.1
		c4.1-4.3,8.3-8.6,12.6-12.8c1.6-1.6,3.5-3,5.4-4.4c0.9-0.7,2-1,3.1-1.6c-0.1,1.2,0.3,2.8-0.3,3.4c-1.4,1.5-3.3,2.4-4.9,3.8
		c-3,2.6-6,5.1-8.8,7.9c-2.5,2.5-4.7,5.3-6.7,7.4c1.8,2,2.9,3.2,4,4.3c1.1,1.2,2.4,2.2,4,3.8c0.7-2.9,0.6-5.4,1.7-6.2
		c2.7-2.1,4.4-4.1,3.9-7.8c-0.1-0.7,1.4-2.3,2.2-2.3c0.9,0,2.5,1.2,2.5,2c0.1,1.9-0.4,3.9-0.8,6.7c1.6,3,4.9,4.3,9,3.8
		c0.8-4.1,5.9-7.9,11-8c-0.5,1.6-1.2,3-1.3,4.5c-0.1,1,0.1,2.5,0.8,3.1c1.9,1.9,3.2,0,4.8-1c1.7-1.1,4.3-3.5,5.4-0.3
		c1,2.9,2.4,2.6,4.6,2.7c5.6,0.4,11.5-2.2,16.8,1.9c2.5-3.3,5.2-2.9,7.5-0.5c3.9-1.3,7.4-2.8,11.1-0.1c0.7,0.5,1.8,0.7,2.8,0.7
		c8.4,0,16.7,0,25.1,0c4.7,0,9.5-0.2,14.1,0.6c4.2,0.6,7.9,0.3,11.3-2.1c3.1-2.2,6.1-4.4,9.2-6.6c-0.9,1.9-1.9,3.7-2.8,5.6
		c-0.7,1.6-1.2,3.3,1.2,3.7c2,0.4,4.2,0.7,6.2,0.5c1.2-0.2,2.8-1.3,3.3-2.4c0.5-1.2-0.3-3,0-4.3c0.3-1.1,1.4-2,2.1-3
		c-3.7,0-6.9,0-10.1,0c0.8-0.8,1.5-1.8,2.4-2.2c7.6-3.7,15.4-7.1,22.9-10.9c1.2-0.6,2.4-2.7,2.4-4c0-1-2.2-3-3-2.8
		c-5,1.3-9.1-2-13.7-2.1c-1.3,0-3.1,0.7-3.8,1.7c-4,5.3-7.8,10.8-11.6,16.3c-0.2,0.3-0.5,0.5-0.9,0.7c-3.1,2-6.2,4-9.3,5.8
		c-0.6,0.4-1.7,0.1-2.5,0.1c0.2-0.7,0.2-1.8,0.7-2.2c5.3-4.7,10.8-9,15.8-14c1.4-1.4,1.1-4.7,1.5-7.1c-2.2-0.1-5.1-1.1-6.5-0.1
		c-2.6,1.8-5.7,3.7-6.2,7.7c-0.2,1.5-2.2,2.9-3.7,4c-2.3,1.7-4.8,3.1-7.3,4.4c-2.5,1.4-5.2,2.7-7.7,4c-0.2-0.3-0.4-0.6-0.6-0.9
		c0.4-0.5,0.7-1.2,1.3-1.6c1.9-1.4,4-2.7,6-4c1-0.7,2.1-1.8,3.2-1.9c4-0.2,5.1-3.7,6.9-6.1c0.5-0.7-0.1-3-0.9-3.7
		c-0.7-0.6-2.8-0.6-3.7,0.1c-3.4,2.5-7,4.4-11.2,5.4c-2.5,0.6-4.8,2.3-7.2,3.6c-2.5,1.4-5,3-8.3,4.9c1.6-5.4,4.7-7.9,9.1-9.7
		c4.1-1.6,8.1-3.8,12.1-5.7c0-0.5,0-0.9,0-1.4c-2.4-0.5-4.8-1.3-7.2-1.4c-3.5-0.1-7,0.4-10.4,0.4c-4.9,0.1-9.8-0.2-14.6,0.1
		c-1.1,0.1-2.9,2-3,3.2c-0.2,2.2,1.6,1.9,3.2,1.3c0.6-0.2,1.4,0.1,2.1,0.1c0.1,0.4,0.1,0.7,0.2,1.1c-4.5,1.8-9,3.6-13.4,5.4
		c-0.1-0.3-0.2-0.5-0.3-0.8c0.8-0.7,1.6-1.4,2.4-2.1c-2.4-3.7-3.3-3.8-6-0.8c-0.4,0.5-1.4,0.5-2.1,0.7c-0.1-0.8-0.5-1.9-0.2-2.4
		c0.5-0.7,1.6-1,2.4-1.4c1.6-0.7,3.3-1.2,4.9-1.9c0-0.4,0.1-0.8,0.1-1.3c-1.2-0.6-2.3-1.5-3.6-1.8c-2.2-0.4-4.5-0.4-6.7-0.6
		c-3-0.3-6.1-0.6-9.1-1.1c-2.5-0.4-4.8-1.6-7.3-1.8c-3.4-0.3-6.9-0.1-10.4-0.2c-5-0.2-9.9-0.4-14.9-0.6c-5.1-0.2-10.3-0.5-15.4-0.7
		c-1.1,0-2.5-0.1-3.3,0.4c-3.3,2.4-6.3,5-9.5,7.5c-2.2,1.7-4.3,3.5-6.5,5.2c-0.3-0.4-0.6-0.7-0.9-1.1c1.6-1.4,3.3-2.7,4.8-4.2
		c0.7-0.7,1.3-2,1.1-2.8c-0.3-0.9-1.5-1.8-2.4-2c-0.5-0.1-1.4,1-2.1,1.7c-1.4,1.4-2.5,3.6-4,4c-2.8,0.7-4.8,1.6-5.7,4.6
		c-0.2,0.7-1.2,1.2-2,1.6c-2.2,1.4-3.5,1.3-3.3-1.8C200.5,45.1,200.5,43.2,200.6,41.4c3.7,2.7,5.4,2.4,7.4-1.6
		c0.4-0.8,1-1.5,1.3-2.2c0.3-0.6,0.6-1.7,0.4-2c-0.5-0.5-1.5-0.9-2.2-0.8c-1.9,0.3-3.8,0.9-6,1.5C201.1,37.9,200.9,39.7,200.6,41.4z
		 M511.3,47.5c-1-0.6-1.4-0.8-1.8-1.1c-4.8-3-4.8-3-7.9,2c-1.1,1.7-2.2,3.3-3.6,5.3c-1.7-3.1-0.6-4.7,1.4-6.3
		c0.8-0.7,1.8-2.3,1.6-2.9c-0.5-1-1.9-2.1-3.1-2.3c-1.2-0.2-2.8,0.1-3.8,0.8c-2.5,1.6-4.7,3.5-7.3,5.4c-0.4-2.7,0.4-6.1-4.2-5.7
		c-6.5,0.6-11.3,3.7-15.4,8.5c-2.5,2.9-5.5,5.4-8.3,8.1c-0.9-5.8-0.5-6.7,4.1-9.7c1.5-1,3-2.2,4.3-3.5c0.4-0.4,0.2-2.2,0.1-2.2
		c-3.3-0.5-7.4-2.2-9.9-0.9c-3.5,1.8-6,5.8-8.8,8.9c-1.7,1.8-3,4-4.9,5.5c-0.8,0.6-2.7-0.4-4.1-0.7c0.3-1.2,0.2-2.8,0.9-3.4
		c2.4-1.9,5.1-3.3,7.6-5.2c1.1-0.9,1.8-2.4,2.7-3.6c-1.2-0.9-2.4-1.9-3.7-2.6c-0.7-0.4-2-0.5-2.5-0.1c-3.7,2.7-7.7,5.1-10.7,8.5
		c-1.2,1.4,0,4.8,0.1,7.3c-3.9,2.3-8.2,4.9-12.6,7.4c-1,0.6-2.1,1-3.2,1.4c0.2-1.3,0-3.1,0.8-3.9c1.9-2.1,4.6-3.6,6.4-5.7
		c1.6-1.8,3.6-4.5,3.2-6.3c-0.5-2.1-0.6-3.6,0.2-5.5c1.2-2.7,0.3-4-2.8-3.8c-2.2,0.1-4.5,0.1-6.7-0.2c-2.5-0.3-3.7,0.8-4.3,3.1
		c-0.4,1.6-0.9,3.1-1.4,4.7c-0.4,0-0.8,0-1.3,0c-0.4-1.4-0.9-2.9-1.3-4.3c-0.8-2.2-1.3-5.4-4.4-4.4c-2.5,0.8-6.8,0-6.6,4.9
		c0,0.3-0.6,0.7-0.9,1c-4.6,4.1-4.7,4.6-1.9,9.8c-3.3,3.9-6.2,4.5-10.3,2.2c-0.6,1-1.2,2.9-1.8,2.9c-4.8,0.2-3,4.3-3.6,6.5
		c-0.2,0.7,2.8,2.9,4.6,3.4c2.3,0.6,5.1,0.7,7.3-0.1c1.4-0.5,3.1-3.2,2.9-4.7c-0.3-2.5,0.5-3.7,2.2-5c1.9-1.5,3.6-3.1,5.3-4.8
		c0.7-0.7,1-1.9,2-3.7c-2.6,0.9-4,1.4-5.4,1.9c2.6-2.5,3.5-6.9,8.2-6.7c0,1.7,0.5,3.5-0.1,4.8c-1.9,4.3-1.2,9.9-6.6,12.3
		c-0.4,0.2-0.6,0.8-0.9,1.2c-1.8,2.1-0.6,4,1.3,4.3c4.1,0.6,8.3,0.5,12.4,0.7c2.3,0.1,4.6,0.3,6.8,0.7c2.5,0.5,5,1.5,7.5,1.9
		c2.3,0.4,3.9-0.7,3.7-3.4c-0.3-4,2.5-5.7,5.7-7.4c0.2,1.7,0.1,3.4-0.4,4.9c-0.8,2.5,0.3,4,2.4,4.7c5.1,1.8,9.3-0.8,10.4-6
		c0.1-0.4-0.1-1,0.1-1.1c1.4-0.8,2.8-1.6,4.4-2.1c0.8-0.2,1.8,0.4,2.7,0.7c-0.6,1.1-1.1,2.2-1.9,3.1c-1.5,1.7-1.3,3.1,0.4,4.5
		c2.6,2.1,6.8,1,8.4-2c0.5-1,2-1.7,3.2-2.1c0.4-0.2,1.8,0.8,1.8,1.2c0.1,1.8-0.1,3.8,2.5,3.6c1.6-0.2,3.4-0.7,4.8-1.6
		c2.3-1.4,4.2-3.6,6.7-4.7c1.8-0.8,4.7-1.2,6.3-0.3c7,3.7,6.9,3.9,10.6-2.5c0.4,0.5,1,0.8,1.2,1.3c1.2,2.7,2.2,4.1,5.4,1.5
		c3.1-2.5,6.9-4.8,10.7-5.5c5.5-1,8.4-3.5,9.1-8.8c0-0.3,0.7-0.5,1.1-0.7c2.8,4,3.4,4.3,6.7,1.6c1.5-1.3,2.3-4,2.6-6.1
		c0.2-1-1.3-3.2-2.3-3.4c-3.6-0.5-7.4-0.7-11-0.3c-1.3,0.1-2.5,2.1-3.7,3.4c-1.4,1.5-2.6,3.3-4.1,4.8c-1.7,1.6-3.7,2.8-5.5,4.2
		c-0.3-0.3-0.7-0.7-1-1c1.4-1.9,2.8-3.8,4.2-5.8c0.8-1.2,1.8-2.4,2.3-3.7c0.2-0.5-0.5-1.5-0.7-2.2c-0.8,0.3-2,0.4-2.4,1
		C512.3,44.5,512,45.8,511.3,47.5z M80.9,121c-0.5,0-1,0-1.5,0c0-3.4,0.3-6.9-0.1-10.2c-0.4-3.5-0.2-7.5-4.2-9.4
		c-3.2-1.5-6.7-2.4-10-3.7c-8.3-3.3-8.3-5-14.8,2.7c-4.1,4.9-8,9.4-7.8,16.2c0,0.7-0.3,1.5-0.5,2.2c-1.7,6.4-4.6,12.6-4,19.4
		c0.2,2.2,0.8,4.7,1.9,6.6c1.9,3.4,4.1,6.7,8.2,8.1c1.1,0.4,1.8,1.8,2.6,2.7c-0.3,0.4-0.5,0.8-0.8,1.2c-2.5-1.3-5-2.6-8.2-4.3
		c1.8,4.9,4.9,7.1,8.6,8.3c2.1,0.7,4.3,0.4,5-2.4c0.6-2.3,0.9-4.8,1.9-6.9c1.4-3.1,0.4-5.5-1.1-8c-0.6-1-1.4-1.9-2.1-2.8
		c0.5,0,1,0.1,1.4,0.1c0.9-2.1,2.2-4,2.5-6.2c0.6-3.7,1.6-4.9,5.3-4.2c5.9,1.1,11.2,0.3,15.4-4.5c0.4-0.4,1.4-0.7,2-0.6
		c4,1.3,4.4-1.5,4.8-4.1c0.7-5,1.2-10.1,1.8-15.1c0.1-1,0.1-2.1-0.2-2.9c-0.3-0.8-1.1-1.7-1.9-2c-0.4-0.2-1.7,0.7-1.9,1.3
		c-0.9,2.9-1.9,5.8-2.3,8.8C80.6,114.3,80.9,117.7,80.9,121z M281.7,100.1c-0.3,0-0.6-0.1-0.8-0.1c-0.3,0.5-0.5,1-0.8,1.5
		c-0.6,0.8-1.3,1.5-1.9,2.3c-0.4-1-1-2.1-1.3-3.2c-0.1-0.4-0.1-1.1,0.1-1.5c2.9-5,1.8-10.4,1.8-15.7c0-3.6,1.3-4.5,4.9-4.3
		c1.7,0.1,3.4-0.1,5.1-0.2c3.5-0.3,4.2,0.8,4.1,4.2c-0.2,6,0.1,12.1,0,18.1c-0.1,3.8,2.3,4,5.1,4.3c3,0.3,4.1-1.4,4.5-3.8
		c0.3-1.6,0.3-3.2,0.3-4.8c-0.1-6.8-0.4-13.7-0.1-20.5c0.1-2.9-1-3.2-3.1-3.2c-2.4,0-4.7,0-7.1,0c-3.9,0-7.9,0.1-11.8,0
		c-2.8-0.1-5.6-0.3-8.4-0.9c-2.9-0.7-3.7,0.7-3.6,3.1c0.1,3.9,0.5,7.7,0.7,11.5c0.3,7.8,0.7,15.6,0.9,23.4c0.1,6.7,0,13.4-0.3,20.2
		c-0.1,3.1,1.1,4.3,4.2,4.1c1.7-0.1,4.3-0.1,4.9,0.8c2.4,3.8,5.1,2.6,8.2,1.6c3.2-1,6.6-2.1,9.9-2.3c6.7-0.5,6.7-0.3,6.6-7.2
		c0-1,0.3-2,0.2-3c-0.3-3.6-0.4-7.2-1.2-10.7c-0.3-1.3-2.1-2.8-3.4-3.1c-3.9-0.7-7.8-1-11.8-0.9c-2.7,0-4.3-0.7-4.6-3.5
		C282.4,104.2,282,102.2,281.7,100.1z M540.1,141c0.5,0,1.1,0,1.6,0c0.6-1.3,1.7-2.6,1.8-3.9c0.2-2.3,1-2.9,3.2-3c1,0,2.2-1.4,3-2.4
		c0.7-0.9,0.8-2.4,1.5-3.4c3.8-5,4.6-10.8,4-16.8c-0.1-0.9-0.9-2.3-1.7-2.4c-0.8-0.2-2.2,0.5-2.7,1.3c-1.2,1.8-2.1,3.9-2.9,6
		c-1,2.6-2.1,4.6-5.4,3.3c-0.6-0.2-2,0.4-2.5,1c-1.4,2-2.6,4.2-3.6,6.4c-0.3,0.7,0.3,2.5,0.9,2.7c2.9,0.9,2.3,3,2.2,5.1
		C539.3,136.8,539.8,138.9,540.1,141z M86.8,204.4c0.7,0,1.3,0.1,2,0.1c1-3.3,2.7-6.6,2.9-10c0.3-7.3-0.3-14.6-0.3-21.9
		c0-5.1-0.4-10.3,0.6-15.2c1-5-2-8.1-3.4-12c-0.1-0.3-1.1-0.3-2.6-0.7C85.2,165,87.5,184.7,86.8,204.4z M554.1,76.1
		c0-1.4-2.6-2.6-5.1-1.8c-1.2,0.4-2.7,1-3.7,0.6c-2.6-1.1-3.1,0.3-3.3,2.3c-0.3,2.8-0.8,5.7-0.8,8.5c0,1,0.9,2.4,1.8,3
		c3.7,2.3,4.7,4.1,3.1,8.1c-1.1,2.8-2.6,5.3-3.5,8.2c-0.3,0.9,0.6,2.8,1.5,3.3c1,0.6,3.6,0.5,3.8,0c2-4.3,3.8-8.8,5.3-13.3
		c0.4-1.1-0.3-3.4-1.2-3.9c-2.3-1.3-1.7-2.6-1.1-4.4C552,83.4,552.9,80.1,554.1,76.1z M520.8,40.3c-0.1-2.5-0.2-4.5-0.4-6.4
		c-0.4-3.5-0.7-7.2-1.6-10.6c-0.3-1.2-2.3-2.5-3.7-2.8c-1-0.2-2.6,1.2-3.3,2.3c-1,1.5-2,3.5-1.8,5.2c0.4,3.8,0.9,8,2.8,11.2
		C513.6,40.6,517.9,40,520.8,40.3z M550.5,142.3c-0.4-0.7-0.9-2.8-1.6-2.8c-1.2-0.1-3,0.7-3.5,1.7c-1.4,2.6-2.2,5.5-3.3,8.2
		c-0.9,2.2-3,4.5-2.6,6.3c0.4,1.8,3.2,3.1,4.9,4.7c0.1,0.1,0.2,0.2,0.3,0.3c1.4,0.3,3,1,4.1,0.6c1-0.3,2-2.1,2-3.2
		c-0.1-2.9,1.7-6.3-1.6-8.7c-0.3-0.2,0-1.4,0.2-2.1C549.7,145.9,550.1,144.5,550.5,142.3z M66.1,163.2c0.5,0.3,0.9,0.6,1.3,0.8
		c1.2,0.6,3.3,1.9,3.6,1.6c1.4-1.4,2.7-3.2,3.3-5.1c0.2-0.6-2-2.7-3-2.7c-4,0.1-8.1,0.8-12.1,1.1c-3.3,0.3-3.8,3-3.6,5.2
		c0.3,2.2,1.7,4.3,2.8,6.4c0.1,0.2,2-0.1,2.5-0.7C62.8,167.8,64.3,165.6,66.1,163.2z M167,185.1c0-0.1,0-0.2,0-0.4
		c-1.7,0.3-3.5,0.5-5.1,1c-3.4,1.2-2.6,3.9-2.1,6.5c0.5,2.5,1.9,4.1,4.3,3.4c3.7-1,7.3-2.3,10.6-4.1c1.2-0.6,1.6-3,1.9-4.7
		c0.1-0.4-1.5-1.6-2.4-1.7C171.9,185,169.4,185.1,167,185.1z M93.8,106.5c0.1,0,0.3,0,0.4,0c0-1.1,0.3-2.4-0.1-3.3
		c-0.5-1.4-1.5-2.7-2.3-4c-0.6,1.4-1.7,2.8-1.8,4.3c-0.3,5.3-0.2,10.7-0.4,16.1c-0.1,1.3-1,2.5-1.4,3.7c-0.4,1.1-0.6,2.2-0.9,3.3
		c2,0,4.1,0.2,6-0.1c0.6-0.1,1.4-1.4,1.4-2.1C94.5,118.3,94.1,112.4,93.8,106.5z M533.8,143c0.2,0,0.5,0,0.7,0c0-0.4,0.1-0.8,0-1.1
		c-0.7-1.6-1.3-4.4-2.1-4.5c-2.9-0.1-2.3,2.7-2.5,4.5c-0.3,2.2,0.5,4.8-0.4,6.6c-2.1,4.4-2.2,8.3,0.9,12.1c0.6,0.7,1.3,1.3,1.9,1.9
		c0.5-0.9,1.5-1.7,1.5-2.6C533.9,154.3,533.8,148.6,533.8,143z M99.3,111.6c4.6-3.5,3.2-8,3.3-12.1c0.1-2.1-0.9-3.4-3.5-3.1
		c-2.5,0.3-3,1.3-2.8,3.7c0.5,5.8,2.3,11.6-0.2,17.4c-0.2,0.5,0.1,1.8,0.5,1.9c0.7,0.2,1.8,0.2,2.3-0.3
		C101.3,117,103.1,114.7,99.3,111.6z M97.9,179.6c1.1-0.8,2.3-1.6,3.5-2.5c-1.2-0.7-2.4-1.4-3.5-2.1c-0.5-0.4-1.5-1.2-1.4-1.4
		c1.6-3,1.6-5.9,0-8.9c-0.2-0.3,0.5-1,0.8-1.6c1.7-3,0.3-4.7-3.3-6.6c0.9,10.3-3.1,19.9,1.1,29.3c0.6,0,1.1,0.1,1.7,0.1
		C97.2,184,97.6,181.9,97.9,179.6z M540.3,48.1c-0.4,2.7,0.9,4.5,3.4,4.1c2.9-0.4,5.9-1.3,8.6-2.6c1.1-0.5,1.9-2.6,1.9-4
		c0-2.1-1.6-2.4-3.5-1.9c-2.3,0.5-4.6,0.9-6.9,1C541.2,44.6,539.9,45.5,540.3,48.1z M98.3,136.3c-0.1,0-0.2,0-0.2,0
		c0-1.2,0.2-2.5-0.1-3.7c-0.2-0.8-1.1-1.9-1.8-2c-0.7-0.1-2.3,0.8-2.3,1.3c-0.2,5.2-0.2,10.3-0.1,15.5c0,0.5,1,1.2,1.6,1.3
		c0.5,0,1.4-0.7,1.5-1.3C97.5,143.7,97.9,139.9,98.3,136.3z M548.4,165c-3.4-2.2-5-1.6-6.1,2.1c-0.3,1.2-1.1,2.3-1.2,3.5
		c-0.2,3.3-0.1,6.5-0.1,9.8c0.5,0.1,1,0.2,1.5,0.3c1-2.4,2-4.9,2.9-7.3C546.5,170.7,547.4,168.1,548.4,165z M54.7,200.7
		c-0.4-0.4-1.5-2.5-2.9-2.7c-3.3-0.6-5.3,1.8-5.4,5.4c-0.1,2.8,1.7,3.3,3.9,3.3C53.2,206.6,55.1,205.3,54.7,200.7z M59.9,176.7
		c0.8,0.6,1.8,1.8,3,2.1c3.8,0.7,2.6-3.1,3.8-4.8c0.3-0.4-1.4-3-2.4-3.2C60.6,170.3,60.9,173.5,59.9,176.7z M321.7,141.1
		c-1.4-1.6-2.3-3.3-2.9-3.2c-3.7,0.7-2.3,4.1-2.9,6.4c-0.2,0.5,0.8,1.4,1.3,2.2C318.5,144.8,319.9,143.1,321.7,141.1z M536.1,103.2
		c0.4,0.1,0.7,0.2,1.1,0.3c1.4-2.4,3-4.7,4.3-7.2c0.4-0.7,0.1-1.8-0.2-2.7c-0.1-0.3-1.3-0.5-1.6-0.3c-0.6,0.5-1,1.3-1.3,2
		c-0.6,1.4-1.2,2.8-1.6,4.3C536.3,100.8,536.3,102,536.1,103.2z M281.5,91.8c1.2,1.6,2,2.7,2.8,3.7c0.9-1.4,2.2-2.8,2.6-4.4
		c0.2-0.6-1.4-1.8-2.1-2.7C283.8,89.4,282.8,90.4,281.5,91.8z M514,67.1c-0.6,0.4-1.2,0.7-1.8,1.1c-0.5,0.7-1.5,1.8-1.3,2.1
		c0.8,1.1,1.9,2,3,2.7c0.2,0.1,1.9-1.4,1.8-2C515.5,69.6,514.6,68.4,514,67.1z M391.1,59c1.2-1.7,2.4-2.7,2.5-3.8
		c0.1-0.7-1.3-2.1-2.2-2.1c-0.8,0-2.4,1.2-2.4,1.9C389.1,56.1,390.1,57.1,391.1,59z M76.5,162.5c0.6,0,1.2,0,1.8,0
		c0-1.5,0-3-0.1-4.4c0-0.1-1.4-0.1-2.2-0.1C76.2,159.4,76.4,160.9,76.5,162.5z"/>
	<path d="M698.8,78.6c-5.8,0-10.5,0-15.5,0c0.3-1,0.2-2.1,0.7-2.5c4.4-3.4,1.1-6.3-0.5-9.2c-1.1-2-2.7-1.2-3.4,0.4
		c-1.6,3.5-2.8,7.2-4.3,10.7c-1.4,3.2-2.9,6.3-4.5,9.6c-3.5-3.1-4-8.2-2.2-11.4c0.6-1,0.2-2.6,0.3-3.9c-1.2,0.5-2.7,0.6-3.5,1.5
		c-3.6,3.6-5.6,8.1-6.1,13.2c-0.4,4.1-1.8,8.2-1.8,12.3c0,6.5,0.5,12.9,2.4,19.3c1.5,5.1,1.6,10.6,2.5,15.9c0.8,4.9,1.8,9.8,3,14.5
		c1.1,4.2,4.9,4.5,8.3,4.9c6.5,0.7,8.8,3.6,4.9,8.8c-2.8,3.7-1.1,7-2.4,10.5c7.3,3.6,14.8,5.2,22.6,3.3c7.4-1.8,7.3-2.1,5.7-9.9
		c-0.2-1-0.1-2-0.1-3c-0.3-5.7-2-10.8-5.6-15.5c-4.1-5.3-7.7-11.1-8.1-18.1c-0.1-1.1-0.2-2.3,0.1-3.3c0.2-0.8,0.9-1.7,1.6-2.1
		c0.3-0.2,1.6,0.3,1.8,0.8c0.3,0.7,0.2,1.8-0.1,2.5c-2.4,5.2,1.5,14.5,7.3,16.4c0.4-1.1,0.9-2.2,1.3-3.3c1.6,6.2,0.2,13.1,4.8,18.7
		c4.4-2.2,3.7-6.6,4.6-9.9c1.8-6.7,4-13.6,3.8-20.3c-0.2-6.9,3.6-12.8,2.5-19.8c-0.7-4.6,1.4-9.5,2.2-14.3c0.4,0.1,0.9,0.1,1.3,0.2
		c-0.3,2.2-0.6,4.3-0.8,6.5c-0.2,2.6-0.3,5.2-0.4,7.8c0,1,0.3,2,0.4,3.1c1.1-0.4,2.3-0.6,3.3-1.2c0.7-0.4,1.1-1.2,2.4-1.7
		c-0.3,1.4-0.5,2.9-0.9,4.3c-1.6,4.8-3.4,9.5-4.9,14.3c-2.4,7.7-4.5,15.4-6.8,23.1c-0.2,0.8-0.7,1.6-0.8,2.5
		c-0.7,4.8-0.7,4.8,5.1,6.7c-0.2,0.4-0.3,1.1-0.6,1.2c-4.2,1.3-4.3,5-4.2,8.2c0,3.1,1.3,6.1,1.8,9.2c0.1,0.7-0.6,2.1-1.3,2.3
		c-2.6,0.9-3,2.8-3.5,5.2c-1.1,5.9-2.7,11.7-4,17.6c-0.9,4.2-2.1,8.5-2.6,12.8c-0.5,4.3-0.6,8.7-0.4,13.1c0.1,2.9,1.3,5.7,1.8,8.5
		c0.4,2.4,1,4.9,0.7,7.3c-0.2,2.5-2.4,2.6-4.6,2.5c-2.5-0.1-3.4-1.6-3.2-3.6c0.4-7,0.9-13.9,1.4-20.8c0.5-6.1,1-12.3,1.5-18.4
		c0-0.2-0.1-0.5,0-0.7c1.4-5,2.8-9.9,4.1-14.9c0.5-2,1.2-4.1,1.2-6.1c0.1-4.6,0-4.2-4.4-3.7c-4.4,0.5-8.9,0-13.4,0
		c-2.1,0-4.2,0.6-6.2,0.4c-1.9-0.2-3.7-1.1-5.5-1.9c-3.3-1.6-6.5-3.6-9.8-5.2c-0.6-0.3-1.8,0.3-2.5,0.7c-3.4,1.8-6.7,2.5-9.2,1
		c-0.5-4-0.9-7.1-1.2-10.2c0-0.4,0.3-0.9,0.4-1.4c0.6-3.5,1.3-6.9,2-11c0.4-0.1,1.7-0.3,3.2-0.5c0-4.6,0.3-9.1-0.1-13.6
		c-0.4-5.6-1.3-11.3-2-16.9c-0.5-3.8-2.4-5.1-5.5-3c-2.9,2-5.9,4.3-5.9,8.5c0.1,7.5-0.7,15.3,0.7,22.6c0.8,4,0.9,8.1,1.7,12
		c0.5,2.6-0.1,3.5-3.1,3.8c-3.3,0.4-6.4,2.4-9.6,3.9c-0.5,0.2-0.4,1.5-0.6,2.3c0.7,0.1,1.3,0.3,2,0.4c2.9,0.6,5.7,1.2,8.8,1.9
		c-2.5,3.9-1.7,7.9,0.4,11.9c0.3,0.7,0.7,1.4,0.7,2.1c0.2,5.4,3.6,5.8,7.8,5.4c3.4-0.3,6.9,0.8,10-1.8c1-0.9,3.3-1,4.7-0.5
		c4.3,1.4,8.4-0.2,12.6,0c3.9,0.2,7.7,0.3,11.6,0.4c2.6,0.1,4.8-0.3,4.7-3.8c0-0.9,1-1.9,1.5-2.8c0.5,0.1,1.1,0.3,1.6,0.4
		c-0.4,2.6-0.7,5.3-1.2,7.9c-0.4,2-1.2,3.9-1.6,5.9c-0.7,4.2-1.3,8.4-1.9,12.5c-0.5,0-1.1,0-1.6,0c-0.4-1.6-1-3.2-1-4.8
		c0.1-3.5,0.6-7,0.9-10.5c0.3-2.6-1.1-3.8-3.8-3.5c-8.7,1.1-17.5,1.9-26.2,3.2c-2.6,0.4-4.9,2.2-7.4,3.2c-4.5,1.9-9,4.8-13.7,5.3
		c-5.6,0.5-9.5,4.3-14.6,5.4c-3.3,0.7-6.3,2.7-9.5,4c-0.9,0.4-1.8,0.5-3.9,1c1.1-1.9,1.5-3.2,2.3-3.7c2.5-1.5,5-3,7.8-4
		c4.1-1.5,8.2-2.3,12-5.3c3-2.4,8-2.2,12.1-3.2c1.2-0.3,2.2-1,3.3-1.5c-0.9-0.7-1.7-1.7-2.8-2c-3.8-0.9-7.7-1.5-11.5-2.2
		c-0.5-1.3-0.6-3.1-1.6-4c-1-0.9-2.9-1-5-1.6c2.2-2.1,3.3-3.8-0.1-4.7c-0.4-0.1-1-0.7-1-1c0.5-3.7-1.6-5.2-5.8-5.5
		c1.6-1.2,2.4-1.8,3.6-2.7c-0.4-0.2-0.7-0.4-1-0.5c-2.3-1.1-4.7-2.1-7-3.2c-2.1-1-7,3.1-6.5,6.1c0.4,2.7,2.1,5.1,3.2,7.7
		c0.4,1,0.9,1.9,1.4,2.9c-0.4,0.2-0.8,0.4-1.1,0.6c-1.8-2-4.1-3.7-5.2-5.9c-1.1-2.4-2.8-3.8-4.7-5.3c-3-2.4-5.3-5.6-8.3-7.9
		c-3.3-2.5-6.7-5-11.5-3.1c-5.5,2.1-6.5,2.4-5,8.5c1.1,4.7,0.1,8.8-1,13.1c-0.1,0.3-0.3,0.7-0.6,0.9c-0.1,0.2-0.4,0.2-0.8,0.3
		c-2.1-2.2,1-6.8-3.3-7.8c-2.8-0.6-5.7-0.7-8.6-1.8c3.4,0,6.7,0,10.5,0c-1-5-5.1-2.1-8.2-4.3c3.1-0.2,5.1-0.3,7.2-0.4
		c0.6-3-1.8-7.6-4.4-8.1c-1.9-0.4-4.1-0.5-5.8,0.2c-1.4,0.5-2.3,2.3-4,4.1c0-2.7-0.3-5,0.2-7.3c0.1-0.7,2.1-1.3,3.3-1.4
		c2.5-0.3,5-0.3,7.5-0.4c0.8,0,1.7-0.3,2.4,0c3.5,1,5.6-0.5,5.5-4.3c-0.2-10.1-0.6-20.2-0.8-30.2c0-0.4,0.3-0.9,0.5-1.3
		c0.4-0.1,0.7-0.2,1.1-0.3c0.4,1.2,1.1,2.5,1.2,3.7c0.1,9.1,0,18.2,0,27.3c0,4.4,4.2,7.2,8.3,5.3c2.4-1.1,4.1-1.6,5,1.7
		c0.2,0.8,1.3,1.5,2,2.1c2.2,1.8,4.4,3.6,6.7,5.2c1,0.7,2.5,1.4,3.5,1.1c0.9-0.3,2-1.9,2.1-3c0.1-2.8-0.3-5.7-0.5-8.6
		c-0.2-1.9-0.5-3.7-0.7-5.6c-0.5-6-1-12-1.3-18.1c-0.1-3.4,0.2-6.8,0.6-10.1c0.1-0.8,1.4-1.6,2.3-2.2c4.4-3.2,9.5-4.1,14.7-3.4
		c1.3,0.2,2.8,1.5,3.7,2.7c0.9,1.3,1.1,3.1,1.6,4.8c0.8-0.4,1.5-0.5,1.5-0.7c-0.1-5,3.9-4.8,7.1-5.7c4.8-1.5,9.1-3.8,12-8.1
		c1.4-2,0.7-5.1-1.6-5.4c-4.2-0.5-8.4-0.6-12.6-0.5c-1.3,0-2.5,1.3-4.2,2.2c-5.2-3.4-9.6,0.3-14.1,3c-9,5.5-18.5,8-28.9,4.6
		c-0.9-0.3-1.9-1.8-1.9-2.8c0-4.2,0.3-8.5,0.7-12.7c0.2-2.6,1-5.1,1.3-7.6c0.2-1.7-0.1-3.5-0.1-5.2c0-1.8-0.5-4.1,0.4-5.1
		c0.9-1,3.3-1,5-1c1.7,0,3.4,0.6,5.3,1c0.1,0.5,0.4,1.1,0.4,1.6c-0.5,9.2,6.2,16.1,7.8,24.6c0.4,2.1,1.6,2.2,3.6,1
		c3.9-2.4,7.9-4.6,10.5-8.6c0.2-0.4,0.9-0.6,1.3-0.6c6.1-0.6,12.2-2.2,18.2,0.7c2.3,1.1,5,1.4,7.5,1.6c0.7,0,2.1-2,2.1-3.1
		c0-3.6-0.9-7.2-0.7-10.8c0.2-3.1,1.6-6.1,2.3-9.2c0.5-1.9,1.4-4,0.9-5.6c-0.2-0.8-3.2-1.2-4.9-1.1c-8,0.3-16.1,1.2-24.1,1.3
		c-4.3,0-8.7-1.2-13.1-1.6c-2.4-0.2-4.9,0-6.9,0c-0.4-2.2-0.7-3.8-1.1-5.4c-0.1-0.2-1.9-0.1-1.9,0c-0.3,1.5-0.4,3-0.6,4.9
		c-0.2,0-0.9,0.1-1.5,0c-5.3-0.8-10.5-1.7-15.8-2.4c-4.4-0.6-8.8-1.1-13.3-1.3c-2.3-0.1-4.6,0.7-6.9,0.7c-1.1,0-3-0.4-3.3-1.1
		c-0.8-2.1-1-4.5-1.5-7.3c6.2,0.5,11.9,1.2,17.7,1.5c4.6,0.2,9.2,0,13.8,0.1c1.4,0,2.8,0.6,4.2,0.9c2,0.4,4.1,1.2,6.2,1.3
		c6.4,0.3,12.8,0.3,19.2,0.6c3.5,0.2,7,1.1,10.6,1.2c2.6,0.1,4.8-1.1,7.7,0.8c2.1,1.4,6,0.2,9.1,0.3c2,0.1,3.9,0.5,5.9,0.6
		c1.9,0,4.2,0.4,5.8-0.5c3-1.7,5.6-3.8,9.4-3.8c0.9,0,3-3.1,2.7-4.2c-0.5-1.8-2.3-3.5-4-4.5c-4.4-2.5-9.1-4.7-11.6-9.5
		c-0.1-0.2-0.2-0.5-0.4-0.6c-3.9-3.3-7.9-6.6-11.8-10c-1.9-1.7-3.5-3.8-5.6-5.4c-2.5-1.9-5.4-3.3-7.9-5.2c-0.9-0.7-1.4-2-2.1-3.1
		c0.3-0.2,0.6-0.5,0.9-0.7c2.6,1.1,5.1,2.2,7.7,3.3c2.5,1.1,4.1,0.8,4.3-2.4c0.1-0.8,0.8-2.3,1.2-2.3c1,0,2.1,0.5,2.9,1.2
		c4.6,4,9.1,8,13.6,12.1c2.2,2,4.1,4.2,6.2,6.3c2.3,2.2,4.5,4.5,7,6.5c2.1,1.7,4.1,1.2,5.1-1.3c2.4-5.7,4.5-11.5,7.1-17.1
		c2.5-5.5,4.6-11.5,8.5-15.9c2.9-3.3,8.3-4.4,12.8-6c1.8-0.7,4-0.3,6.1,0.4c-3.6,1.2-7.2,2.5-10.8,3.7c-5.5,1.9-6.1,4.2-3.1,9.2
		c2.3,3.8,3.9,8,6,12c2.2,4,4.5,7.9,6.8,11.9c0.9,1.6,1.7,3.2,2.6,4.8c-0.4,0.2-0.8,0.5-1.2,0.7c-3.6-5.6-7.4-11-10.9-16.7
		c-1.2-2-1.3-4.8-2.5-6.9c-0.8-1.6-2.5-2.8-4-3.9c-0.3-0.2-2,0.7-2.3,1.5c-2,4.6-3.7,9.3-5.5,14c-2.2,5.5-4.4,11-6.7,16.4
		c-0.1,0.2-0.1,0.5-0.1,0.7c-0.6,1.9-2.3,4.5-1.6,5.7c1.9,3.4,4.8,6.3,7.4,9.3C692.1,71.7,695,74.7,698.8,78.6z M667.1,47.1
		c1.1-0.7,2.4-1,2.8-1.8c0.3-0.5-0.4-1.9-1.1-2.5c-0.9-0.9-2.2-1.2-3.1-2c-2.8-2.4-6.7-3.6-8-7.7c-0.3-1-1.5-1.6-2.3-2.4
		c-0.2,1.2-1.1,2.7-0.6,3.6c1.4,2.7,3.1,5.4,5.1,7.5C661.9,43.8,664.6,45.3,667.1,47.1z M599.6,109.3c-2.4-0.3-4.4,0.1-3.9,3.2
		c0.4,2.4,4.6,5.3,7,4.2c2.1-0.9,3.6-3.3,5.1-5.2c0.1-0.2-1-2-1.7-2.1C604.1,109.1,601.9,109.3,599.6,109.3z M632.3,167.8
		c0,0.2,0.1,0.3,0.1,0.5c1.3-0.4,3-0.5,3.7-1.3c0.7-0.8,0.8-3.2,0.1-3.8c-1.4-1.3-3.4-2.5-5.3-2.9c-2.9-0.6-5.6,1.5-5.5,4.2
		c0.1,3.1,2.8,3,5,3.4C631,168,631.6,167.9,632.3,167.8z M630.1,144.5c0,3.5-0.2,6.3,0.1,9c0.1,0.8,1.4,2,2.2,2c0.7,0,1.9-1.1,2.3-2
		C635.8,151,634,146.8,630.1,144.5z M666.3,169.3c-1.8-1.4-2.8-2.8-3.9-2.9c-2.2-0.2-4.1,1-3.6,3.5c0.3,1.5,1.9,2.7,2.9,4
		C663,172.5,664.3,171.2,666.3,169.3z M642.6,182.9c0.4-0.6,0.8-1.3,1.3-1.9c-2.8-2-5.5-4.1-8.3-6c-0.1,0-1.3,1.1-1.3,1.7
		c-0.2,2.6,3.9,7.1,6.5,7.2C641.3,184,641.9,183.3,642.6,182.9z M654.2,30.2c-2-1.6-3.2-2.6-4.5-3.6c-0.7,0.9-2.1,2-1.8,2.5
		c0.6,1.5,1.9,2.8,2.9,4.1C651.7,32.6,652.5,31.8,654.2,30.2z M624.6,165c-1.5-1.3-2.4-2.7-3.3-2.6c-0.8,0-2.4,1.6-2.3,2.4
		c0.1,1.2,1.3,2.3,2.1,3.4C622.1,167.3,623,166.4,624.6,165z M663.6,162c-1.3-1.2-2-1.9-2.8-2.6c-0.8,0.9-2,1.8-2.3,2.9
		c-0.1,0.5,1.3,2,2.2,2.1C661.4,164.5,662.3,163.1,663.6,162z M621.6,141.9c0.2-1.8,0.5-3.6,0.7-5.5c-0.6-0.1-1.6-0.4-1.9-0.2
		C619.1,138,618.8,139.9,621.6,141.9z"/>
	<path d="M750.4,42.2c-2,7.4-3.9,14.9-6,22.3c-0.6,2.1-2,3.9-2.8,6c-0.7,2,0.1,3.7,2.4,3.6c3.8-0.1,7.7-0.2,11.4-1
		c6-1.2,11.6-0.2,17.3,1.3c5.2,1.4,10.4,3.9,15.9,0.7c0.6-0.3,1.7,0.2,3.7,0.6c-1.9,1.5-3,2.4-4.1,3.2c0.2,0.3,0.3,0.6,0.5,0.9
		c1.7-0.8,3.5-1.7,5.1-2.5c-0.3-2.1-0.5-4-0.9-6.3c-1.3,0.1-2.7,0.3-4.6,0.5c0.5-1.3,0.8-2.3,1.3-3.2c2.2-4.8,2-9.3-1.1-13.7
		c-0.6-0.9-1.2-2.9-0.8-3.3c0.8-0.8,2.4-1,3.6-1c13,0.2,26.1,0.4,39.1,0.7c5.7,0.1,11.4,0.4,17.2,0.7c3.1,0.2,6.2,0.6,9.5,0.9
		c0.1,1.1-0.1,2.2,0.3,3c0.5,0.9,1.5,1.9,2.4,1.9c0.7,0,2-1.1,2.1-1.9c0.3-2.8,1.7-2.3,3.7-1.8c5.5,1.4,11.1,2.5,16.6,3.8
		c3.9,0.9,7.8,2,11.8,2.7c4.2,0.7,8.4,0.9,12.6,1.5c2.7,0.4,5.4,1,7.5,1.3c-0.6,2.8-1.7,4.9-1.2,6.6c0.3,0.9,3.7,2.1,4.6,1.4
		c1.3-0.9,1.5-3.3,2.4-5.6c0,0,1,0,1.8,0.3c7.5,2.5,15,5,22.4,7.6c0.8,0.3,1.8,1,2,1.7c1.2,4.4,4.1,6.3,8.6,5.6c1.3-0.2,2.6-0.9,4-1
		c1-0.1,3.1,0.6,3,0.8c-0.1,1.6-0.1,3.9-1.1,4.5c-2.9,1.6-6.1,2.6-9.3,3.6c-3.8,1.1-4.7,3-3.8,6.9c0.9,3.8,0.8,7.9,1.7,11.7
		c2.5,9.6,2.5,19.3,2.4,29.1c-0.1,4,0.6,8.1,0.9,12.1c0.1,2-0.8,3-2.9,2.7c-1-0.1-2,0.1-3,0.1c-5.5-0.2-5.4-0.3-4.9,4.9
		c0.3,3.1-2.4,2.9-4.3,3.5c-2.1,0.7-2.9-0.2-3.1-2.3c-0.7-5-1.6-10-2.4-14.9c-0.5-2.8-2.9-4.1-5.1-2.4c-2.3,1.8-4.5,3.9-6.4,6.2
		c-2.2,2.7-2.1,5.7-0.2,8.7c0.6,0.9,0.5,2.1,0.7,3.2c-1,0-2-0.1-3,0c-1.4,0.1-2.9,0.2-4.7,0.4c0,0.1-0.3-0.5-0.2-0.9
		c1-5.6-1-10.6-3.2-15.4c-1.5-3.3-0.7-4.8,2.5-5.1c5.8-0.5,11.7-0.9,17.6-1.1c6-0.2,7.7,4.8,10.2,8.8c0.8,1.2,2.3,1.9,3.4,2.9
		c0.8-1.1,2.2-2.2,2.2-3.4c0.3-7.7,0.5-15.4,0.2-23.1c0-1.6-1.8-3.8-3.2-4.4c-1.2-0.4-3.5,0.9-4.6,2.1c-2.5,2.6-5.2,2.1-7.9,1.2
		c-2.7-1-5-0.7-7.9,0c-4.1,1-8.6,0.5-13,0.4c-0.8,0-2.1-1.7-2.1-2.6c0-6,0.2-12.1,0.4-18.1c0.1-3.8,0.8-4.1,6.2-4
		c3.5,0,2.9,2.4,2.8,4.4c-0.4,5.5,0.3,10.8,2.6,15.9c0.3,0.7,1.1,1.4,1.8,1.6c4.8,1.5,9.6-2.3,9.3-7.3c-0.1-1.2,0.4-2.5,0.2-3.7
		c-0.2-1.1-0.9-2.8-1.5-2.8c-1.1-0.1-2.4,0.7-3.4,1.4c-0.4,0.3-0.3,1.2-0.7,1.7c-0.5,0.6-1.2,1-1.8,1.5c-0.4-0.7-1.2-1.4-1.1-2.1
		c0.1-2.4,0.4-4.7,0.7-7.1c0.2-1.7,0.7-3.4,0.7-5.2c0-6.3-2.2-7.9-8.3-6.6c-2.4,0.5-4.9,0-7.4,0.1c-2.3,0-4.6,0.1-7,0.1
		c-1,0-2.1,0-2.8-0.5c-4.8-3.8-10.4-1.7-15.6-1.9c-1,0-2.2,1.9-3.1,3.1c-0.5,0.7-0.5,1.8-0.7,2.7c-0.3,0-0.7,0-1,0
		c-0.1-1-0.5-2.1-0.4-3.1c0.3-2.4-0.9-3.1-3.1-3.1c-5.4,0.2-10.7,0.2-16.1,0.5c-1.9,0.1-3.8,1.1-5.6,1.7c0.1,0.3,0.2,0.7,0.2,1
		c-0.2,0-0.6,0.1-0.7,0c-3.2-4.5-7-6.4-12.5-4c-1.5,0.7-3.8,0.3-5.5-0.3c-2.6-0.9-4.6-0.5-7.3,0.3c-2.7,0.9-6.4-1-9.6-1.7
		c-1.9-0.4-3.8-1.4-5.7-1.5c-6.2-0.2-12.5-0.1-18.5-0.1c-2.7,4.7-5.3,9.2-7.9,13.7c0.2,0.4,0.4,0.8,0.5,1.2c2.2-0.4,4.4-1,6.7-1.3
		c1.5-0.2,3.7-0.5,4.3,0.2c0.9,1.1,1,3.1,1,4.7c-0.1,3.4-0.7,6.8-0.6,10.2c0.1,3.1-3.5,6.6-6.3,5.3c-0.8-0.4-1-2.1-1.4-3.2
		c-2.1-1.2-4.4-2.7-7-3.9c-0.9-0.4-2.8-0.4-3.3,0.3c-3.3,4-6.7,8-9.2,12.5c-2.6,4.6-1.1,6.7,4,6.5c8.5-0.3,10.8,6.7,7.6,12.6
		c-3.3,6.1-6.8,12.2-10.5,18.2c-4.7,7.6-9.6,15.1-14.5,22.6c-1.1,1.6-2.8,2.8-3.6,4.6c-1.6,3.4-0.1,5.5,3.8,5.7
		c2.9,0.1,5.7-0.1,8.6,0c1.3,0.1,2.5,0.7,3.8,1.1c0.2,0.1,0.1,1.2,0,1.3c-1.2,0.2-2.3,0.4-3.5,0.5c-1.8,0.3-3.6,0.5-5.3,0.9
		c-0.6,0.1-1.2,0.7-1.7,0.6c-5.8-0.5-11.6-1-17.4-1.5c-1.2-0.1-2.4-0.3-3.6-0.1c-4.5,0.6-9,1.4-13.6,1.9c-0.9,0.1-2.6-0.5-2.7-1
		c-0.3-1,0.1-2.6,0.8-3.2c2.6-2.1,2-3.2-0.7-4.5c-1.4-0.7-2.3-2.2-3.4-3.3c0.2-0.3,0.5-0.7,0.7-1c5.3,1.7,10.7,3.5,16.1,5
		c3,0.8,6.1,1.5,9.2,1.4c4.8-0.1,6.1-2.6,4-6.5c3.3-4.9,6.6-9.8,9.9-14.6c4.8-6.8,9.7-13.6,14.4-20.4c2.5-3.6,4.7-7.4,7-11.2
		c1.5-2.5-0.9-6.3-4.2-7.3c-5.2-1.5-9.3,0.7-13.5,3.3c-4.1,2.5-9.1,4-12.5,7.1c-5,4.6-9.5,10.1-13.3,15.7c-1.4,2-0.2,5.8-0.2,8.8
		c0,1.6,0,3.1,0,4.7c-0.4,0-0.8,0.1-1.3,0.1c-0.5-2.3-1.2-4.7-1.4-7c-0.5-5.3-0.4-5.3-5.5-5.7c0.4-5.5,1.2-6.3,6.5-6.7
		c1-0.1,2.3-0.6,2.8-1.4c4.5-6.4,9.1-12.7,13.1-19.4c2.4-4.1,3.8-8.7,5.7-13.1c0.3-0.7,1.1-1.3,2.2-1.7c-1.1,7.6-7.3,13.3-7.5,21.3
		c4.4-2.5,10.3-1.7,12.1-8.6c1.6-6.1,5.3-11.7,8.2-17.5c0.8-1.5,2.2-2.7,3.3-4c0.8-1,2-2,2-3c-0.1-4.3,2-7.6,4.3-10.8
		c1.6-2.1,3.7-3.9,5.9-5.6c2-1.5,1.6-3-0.2-3.7c-4.9-1.9-9.8-3.8-14.8-5.1c-3.8-0.9-7.9-1-11.8-1.2c-1.7-0.1-3.6,0.2-5,0.9
		c-5.2,2.7-10.3,5.4-15.2,8.5c-1.3,0.8-2,3-2.6,4.6c-2.3,6.2-4.5,12.4-6.7,18.7c-0.4-0.1-0.7-0.1-1.1-0.2c0.2-1,0.6-2,0.6-3.1
		c0.4-7.8,3.8-14.6,7.3-21.3c1.5-2.8,2.1-6.1,3-9.2c2.8-9.5,5.5-19,8.5-28.5C747.9,44.3,749.4,43.4,750.4,42.2
		C750.5,42.2,750.4,42.2,750.4,42.2z M826.4,55.3c-3.4-2.9-6.1-2.8-9.9,0.4c-0.7,0.6-2.8,0.9-3.1,0.4c-3-3.9-6.6-4.4-11.3-3.4
		c-5.9,1.2-5.9,0.8-7,6.8c-0.6,3.2-0.4,5.7,2.8,7.6c1.9,1.2,2.3,2.9,0.5,5c-2.1,2.2-0.8,3.5,1.7,3.4c2.3-0.1,4.6-1,6.9-1.2
		c1.1-0.1,3.1,0.5,3.2,1c0.4,2.7,2.2,2.4,4.1,2.6c5.6,0.6,9.9-1.1,13.3-5.7c0.9-1.2,2.5-1.8,3.8-2.6c0.2,0.3,0.5,0.7,0.7,1
		c-0.7,0.8-1.7,1.4-2,2.3c-0.4,1.1-0.2,2.5-0.3,3.7c2.8,0.2,5.9,1.3,8.1,0.3c2.4-1.1,5.5-3.3,4.4-7.3c-1.1-4-9.5-7.7-13.2-5.7
		c-4.3,2.3-8.6,4.4-13,6.4c-0.7,0.3-1.7,0-2.6,0c-0.3-0.5-0.7-1.1-1-1.6c0.9-0.4,1.8-0.8,2.7-1.2c2.4-1,4.9-1.9,7.1-3.2
		c1.6-0.9,3.1-2.3,4-3.8C826.9,59.3,826.4,57.6,826.4,55.3z M940.5,95.7c0.3-0.2,1.5-0.6,2-1.4c1.9-3.3-0.9-8-4.7-8
		c-2.8,0-5.7,0-8.5,0.6c-1.2,0.2-3,1.8-3,2.8c-0.1,1.3,1.1,3.5,2.2,3.8C932.2,94.6,936,95,940.5,95.7z M844.8,75.2
		c0.8,0.4,1.7,0.9,2.6,1.2c4.5,1.4,5.2,1,6.9-3.3c0.3-0.9,1.4-1.4,2.2-2.1c0.9-0.8,2.3-1.4,2.5-2.3c0.1-0.9-1-2.7-1.7-2.7
		c-1-0.1-2.2,0.9-3.3,1.5c-1.1,0.6-2.3,1.8-3.4,1.8C846.8,69.2,844.8,70.8,844.8,75.2z M858,77.9c5.4,1.2,11.3-1.4,12.4-4.8
		c0.5-1.5-0.4-3.4-0.7-5.2c-1.2,0.8-2.5,1.5-3.6,2.4c-1.5,1.1-3,2.2-4.3,3.4C860.5,74.8,859.6,76.1,858,77.9z M846.8,66.4
		c1.5-0.4,2.4-0.4,2.9-0.9c2-1.5,3.9-3.1,5.7-4.9c0.5-0.5,0.3-1.9-0.1-2.7c-0.3-0.5-1.5-0.9-2.2-0.7c-2.2,0.4-4.6,0.7-6.5,1.9
		c-1.2,0.8-2.1,2.9-2.2,4.4C844.4,64.5,846.1,65.5,846.8,66.4z M945.7,111.3c-1.9-1.5-3-2.8-4.4-3.4c-0.4-0.2-2.3,1.8-2.2,1.9
		c0.8,1.3,1.8,2.7,3.1,3.6C942.5,113.6,943.9,112.4,945.7,111.3z M837.2,59.9c1.2-1.2,1.9-2,2.6-2.8c-0.9-0.6-1.8-1.8-2.8-1.8
		c-0.9,0-1.9,1-2.8,1.6C835.1,57.7,835.9,58.6,837.2,59.9z M893.2,76.1c0.7,2.1,1.5,3.8,4,3.3c0.5-0.1,1.3-1.7,1-2.2
		C897.3,74.9,895.5,74.9,893.2,76.1z M788.1,103.6c-1.6-0.8-2.7-1.7-3.1-1.5c-0.9,0.5-1.5,1.6-2.2,2.4c0.6,0.5,1.3,1.4,1.8,1.3
		C785.6,105.5,786.4,104.7,788.1,103.6z"/>
	<path d="M613.2,196.4c-2.3-2.3-4.1-4.1-6-5.9c-2.8-2.6-5.5-5.1-8.4-7.6c-2-1.7-2.5-3.4-0.1-5.1c-1.9-4.1-6-2.7-9.3-4
		c4.5-2.1,9.7-0.7,12.3,2.4c2.6,3.1,5.8,5.8,8.9,8.3c3.8,3.1,5.7,7.9,3.7,12.3c-0.6,1.4-2.8,2.5-4.4,2.8c-5.8,1.2-11.7,1.9-17.5,2.8
		c-6.8,1.1-13.6,2.3-20.3,3.5c-4.7,0.8-9.6,1.2-14.2,2.4c-4.3,1.1-8.3,3.2-12.5,4.5c-2.5,0.8-5.5,0.3-8,1.1
		c-7.4,2.3-15.2,4.1-22,7.6c-6.5,3.3-13.7,1.5-20,4.3c-5.5,2.4-12.2,1.4-17,6.1c-0.8,0.8-2.3,0.8-3.5,1.1c-1.2,0.3-2.8,0.2-3.5,0.9
		c-4.6,4.6-10.6,4.7-16.3,5.7c-1.7,0.3-3.1,1.9-4.8,2.3c-4.2,1-8.5,1.5-12.6,2.5c-2.4,0.6-5,1.4-7,2.8c-4.5,3.1-10.7,0.7-15,4.9
		c-0.8,0.8-4.4,0-5.5-1.1c-2.7-2.8-4.7-1.4-6.8,0.2c-1.8,1.4-3.3,3.4-5,4.9c-2.6,2.3-4.6,5.7-9,5c-0.7-0.1-2,0.7-2.4,1.5
		c-1.2,2.2-2.5,4.6-2.9,7c-0.4,2.3,1.2,3.6,3.9,3.8c3.8,0.3,7.5,1,11.2,1.8c0.7,0.2,1.8,2,1.7,2.2c-2.5,3.4-0.9,5.1,2.5,6.2
		c-1.9,2-6.7,2.3-8.8,1.1c-1.2-0.7-2.6-1.1-4-1.4c-1.6-0.4-3.3-0.6-5-0.7c-1.9-0.2-3.8,0.1-5.7-0.2c-3.8-0.7-7.5-1.6-11.2-2.6
		c-3.8-1.1-7.5-2.4-11.3-3.7c-0.9-0.3-2-0.6-2.7-1.2c-0.6-0.6-0.9-1.5-1.3-2.3c0.9-0.1,1.8-0.4,2.6-0.2c8,1.7,16,3.5,24,5.4
		c1.7,0.4,3.2,1.5,4.8,1.9c1.1,0.2,2.3-0.3,3.5-0.5c-0.7-0.9-1.2-2.3-2-2.5c-3-0.8-5.4-1.7-5.7-5.4c0-0.4-1.5-1-2.3-1.1
		c-1.8-0.2-3.7-0.1-5.6,0c-2.5,0.2-4.7-0.1-6.8-1.9c-1.1-0.9-3.1-1-4.6-1c-3.4-0.1-6.7-0.2-10.1,0.1c-1.3,0.1-3,0.6-3.8,1.5
		c-1.8,2.3-3.6,2.1-5.8,0.8c-1.2-0.7-2.7-1.1-4.1-1.4c-4.5-0.9-9-1.7-14.3-2.7c-1.2,1.5-2.9,0.9-5.7-0.5c-3.5-1.7-7.9-1.8-11.9-2.7
		c-6.2-1.5-12.5-3.1-18.7-4.7c-4.5-1.2-9-2.6-13.6-3.6c-7.6-1.6-14.1-5.7-21-8.8c-0.9-0.4-1.9-0.4-2.9-0.4
		c-4.9-0.4-9.9-0.6-14.8-1.1c-1.4-0.1-3-0.7-4.2-1.5c-4.9-3.4-10.6-3.3-16.1-4.4c-3.8-0.7-7.9-0.1-11.7-2.7c-2.2-1.6-6-0.9-9-1.5
		c-4.8-0.8-9.6-1.7-14.4-2.6c0-0.4,0-0.8,0-1.3c1.1-0.3,2.1-0.8,3.2-0.8c6,0.1,12-0.1,17.9,0.7c5.1,0.6,10.1,2.4,15.2,3.5
		c7.1,1.6,14.2,3.2,21.4,4.6c1.9,0.4,4.1,0.7,5.9,0.2c6.2-1.5,11.9,0.7,17.8,1.7c1.1,0.2,2.4,2.3,2.6,3.7c0.5,3.5,2.1,5.4,5.8,5.5
		c1.4,0.1,2.9,0.8,4.1,1.7c1.9,1.4,3.5,2.9,5.9,0.7c0.3-0.3,1.4-0.1,2,0.1c7.4,2.1,14.7,4.2,22.1,6.2c2.5,0.7,5,1.1,7.5,1.6
		c0.4,0.1,0.9,0.2,1.1,0c3-2.4,5.7-2.1,8.5,0.4c0.5,0.4,2.2,0,3-0.5c2.1-1.2,4.1-2.8,6.2-4c1-0.6,2.3-0.6,3.4-1
		c0.1,1.1,0.2,2.3,0.3,3.4c0,0.6,0,1.2,0,2.5c5.2-1.4,9.9-2.7,14.7-3.9c0.8-0.2,1.7,0,2.5,0.4c9.5,4,18.8,2.1,28.1-0.4
		c5.2-1.4,10.2-3.3,15.4-4.8c1-0.3,2.3,0.8,3.8,1.3c2-4.3,5.7-5.5,10.4-4.8c0.5,0.1,1.1,0,1.4-0.2c4-3.1,8.9-1.9,13.3-3
		c3.2-0.8,7.2-0.1,9.7-3.5c0.7-1,2.7-0.9,4.1-1.5c1.2-0.5,3-1.1,3.3-2c0.6-2.4-1.6-2.3-3.2-2.4c-0.3,0-0.6-0.3-1.4-0.8
		c5.3-2.3,10-2.4,15,0.5c0.9-3.7,3.3-4.5,6.7-5.3c5.3-1.3,10.2-4.5,15.3-6.7c2.5-1.1,5.1-2,7.8-2.4c3.3-0.6,6.7-0.5,10-1
		c2.3-0.4,4.6-1.3,6.9-2c0.6-0.2,1.1-0.5,1.7-0.6c4.9-0.9,9.8-1.5,14.6-2.8c3.3-1,6.2-3.6,9.5-4.4c4.9-1.2,10-1.4,15-2
		c6.5-0.7,13-0.6,19.2-3.4c2.5-1.1,5.7-0.8,8.6-1c9.2-0.5,18.3-0.2,27.4-3C598.7,198.4,605.4,197.8,613.2,196.4z M393.3,256.7
		c0-0.4,0-0.9,0-1.3c-1-0.2-2.1-0.7-3-0.5c-3.1,0.7-6.1,1.7-9.2,2.4c-3.4,0.7-4.4,2.1-3.2,6.6C383.1,261.4,388.2,259.1,393.3,256.7z
		"/>
	<path d="M872.8,317.1c-6.7-0.7-13.6,1.3-20-1.7c-1.7,0.4-3.3,1-5,1.2c-4.9,0.5-10.1,0-14.7,1.4c-2.5,0.8-5.3,4.6-5.5,7.2
		c-0.3,3.9-3.3,5.7-4.4,8.9c-1,3-3.9,5.4-5.9,8.1c-1.6,2.1-3.2,4.3-4.9,6.4c-0.5,0.6-1.5,1-2.2,1c-4.3-0.2-8.6-0.8-13-0.9
		c-2.3-0.1-4.6,0.4-6.9,0.8c-5.4,0.9-10.5,1.2-15.3-2.3c-1.9-1.4-4.8-1.3-7.2-1.9c-9.7-2.6-19.6-3.3-29.6-3.2c-2,0-4-0.7-6-1.1
		c0-0.5,0.1-0.9,0.1-1.4c2,0,3.9-0.2,5.9,0c6.8,0.8,13.7,0.8,20.5,1.7c6.1,0.8,12.8,0.3,18.5,2.3c5.3,1.9,10-1.5,15.3-0.1
		c-0.5-0.7-0.9-1.8-1.6-2c-5.3-2.2-10.1-5.4-15.8-6.8c-5-1.2-9.6-4-14.3-6.1c-0.4-0.2-0.8-0.7-1.2-0.8c-3.8-0.5-6.8-1.6-6.1-6.6
		c0.1-0.5-2.2-2.1-3.2-2c-3.5,0.4-4.2-1.6-4.2-4.3c0-2.7,0.5-5.4,1.6-8.3c0.6,1.1,1.6,2.3,1.6,3.3c-0.2,3,1.4,4,3.8,5.1
		c7.6,3.2,7.6,3.3,20.1,2.2c-1.7,2.9-3,5.1-4.4,7.4c3.8,4.6,6.5,4.3,9.2-1.2c1.4-2.9,3-5.9,5.3-8.1c1-1,4.1-0.7,5.8,0
		c1.3,0.5,2.2,2.7,2.5,4.2c0.3,1.5-0.4,3.2-0.6,5.1c3.7-0.2,3.8-2.4,4.2-4.5c1-5.3,1.1-4.9,6.3-5.5c6.8-0.8,13.5-2.5,20.3-3.8
		c0.7-0.1,1.5-0.3,2.2-0.1c3.7,0.9,6.4-0.4,6.6-4c0.2-2.5,1.4-2.9,3.3-3c5.9-0.3,11.7-1.4,17.7,0.6c3.2,1,4.7,3.1,6.3,5.2
		c2.9,3.8,7.1,4.2,11.2,4.9c1.4,0.2,2.8,0.5,4.2,0.7C873,315.8,872.9,316.4,872.8,317.1z M845.6,312.3c0.3,0,1.1,0.2,1.8,0.2
		c0.9,0.1,1.7,0.1,2.6,0c3.6-0.1,4.3-1.3,2.6-4.3c-1.8-3.3-11.5-4.8-14.6-2.2c-0.2,0.2-0.3,0.4-0.4,0.6c-1.6,3.2,0,5.9,3.5,5.9
		C842.5,312.5,843.9,312.4,845.6,312.3z M792.2,326.7c-1.7,0.6-2.9,1.4-3.9,1.3c-4.1-0.3-3.4,3.1-3.4,4.9c0,1.2,2.3,2.4,3.6,3.6
		c1.9-2.5,3.9-4.9,5.5-7.5C794.2,328.6,792.7,327.3,792.2,326.7z M758.6,325.3c0.8-0.2,1.6-0.3,2.4-0.5c-0.1-1.7-0.2-3.4-0.3-5.1
		c-1.2,0.1-2.5,0.2-3.7,0.4C757.5,321.9,758.1,323.6,758.6,325.3z"/>
	<path d="M677.6,319.3c-1,0.2-2,0.6-3,0.6c-9.1-0.1-18.2-0.3-27.3-0.4c-1.1,0-2.3,0.2-3.2,0.7c-0.7,0.4-1.4,1.6-1.4,2.3
		c0.1,0.7,1.2,1.6,2,1.7c4.9,0.5,9.8,0.9,14.7,1.3c1.1,0.1,2.2,0.5,3.2,0.9c2.7,1.1,4.8,3.3,8.5,2.4c2.1-0.5,4.7,1.5,7.2,1.9
		c6.4,1.2,12.9,2.3,19.4,3.3c1.4,0.2,3-0.3,4.5-0.1c1.9,0.2,3.8,0.8,5.7,1.1c2.3,0.4,4.6,0.6,6.9,0.9c2.5,0.3,5.1,0.4,7.6,0.9
		c0.6,0.1,1,1.1,1.5,1.7c-0.6,0.4-1.3,1.2-1.9,1.3c-8.1,0.6-16.3,1.6-24.4,1.6c-6,0-12-1.3-18-1.9c-1.5-0.1-3.1,0.4-4.5,0.1
		c-3.7-0.8-7.3-1.8-10.9-2.7c-7-1.8-13.7-4.7-20.9-6.3c-5.4-1.2-10.8-2-16.2-3c-5.3-0.9-10.4-3.1-15.6-4.4c-4.6-1.2-9.3-1.9-14-2.8
		c-4-0.8-8.5-0.6-11.9-2.3c-6.6-3.4-14.3-4.8-19.6-10.5c-0.5-0.5-1.3-0.9-2-1.1c-2.8-0.4-5.1-1.3-5.7-4.6c-0.5-2.6-1.6-5.1-2-7.6
		c-0.5-3.4-0.8-6.9-0.9-10.3c-0.2-6.2,1.1-12.1,3.4-18.1c2.3-6,4.7-11.9,7.8-17.5c0.9-1.7,2.5-2.9,3.7-4.4c1.5-2.1,3-4.2,4.5-6.3
		c0.6-0.8,1.2-2,1.9-2.2c7.6-1.9,11.7-8.8,17.8-12.7c1.9-1.2,4.6-1.5,6.3-2.9c4.3-3.5,9.3-4.2,14.9-4.1c-3.1,2.4-6.1,4.8-9.2,7
		c-0.9,0.6-2.3,0.5-3.5,0.8c-0.9,0.3-2.6,0.6-2.6,0.9c-0.1,3.7-3.5,3-5.3,4.4c-3.6,2.8-6.8,6-10,9.2c-2.7,2.7-5.3,5.4-7.7,8.4
		c-2.5,3.1-4.6,6.5-6.8,9.8c-1.4,2-2.7,4.1-3.9,6.2c-5.1,9.3-5.9,19.5-4.7,29.7c0.6,5.1,1.7,10.6,7.3,13.5c4.8,2.5,9.2,5.9,14.2,7.6
		c4.5,1.5,9.5,1.2,14.4,1.5c4.9,0.3,10.5-0.9,14.7,1c8.1,3.7,16.3,1.8,24.4,2.2c8.2,0.5,16.5-0.9,24.8-1.1
		c5.4-0.1,10.7,0.5,16.1,0.8C677.5,318.4,677.6,318.8,677.6,319.3z"/>
	<path d="M809,219.9c0,1.9,0,3.9,0,6.2c-2.5-1.8-4.7-3.5-7-5c-2.8-1.8-4.3-1.1-5,2.3c-1.2,5.8,1.7,9.6,7.7,10.3
		c0.7,0.1,1.9,0.2,2.1,0.5c1.6,5,6.9,5,10.3,7.4c5.1,3.5,10.9,5.8,16.4,8.6c2.5,1.3,4.1,0.3,4.2-2.5c0-1.1,0-2.2,0.1-3.3
		c0-0.2,0.3-0.4,1-1.1c0.7,1.2,1.6,2.1,1.8,3.2c0.8,3.3,2.9,4.8,6.2,4.6c3.3-0.3,5.3-3.2,5.8-6.3c1-6.5,2.6-12.8,4-19.2
		c0.1-0.6,1-1,1.4-1.4c0.4,0.2,0.8,0.4,0.8,0.5c-0.7,6.1,1.6,12.5-2.4,18.3c-2.6,3.7-0.1,7.7,4.8,7.8c6.8,0.2,13.8,0.8,20.5,0.1
		c5.6-0.6,11-2.8,16.4-4.4c0.8-0.2,1.5-1.2,2.1-2c0.5-0.7,0.6-1.7,0.9-2.6c-1-0.2-2-0.5-3-0.6c-0.5-0.1-1,0.1-1.6,0.2
		c-1.1-2.6-0.3-4,2.3-4.8c1.2-0.4,2.3-1.5,3.4-2.3c-0.2-0.3-0.4-0.6-0.6-1c1.6-0.4,3.1-1,4.7-1.1c3.8-0.3,4.8-2.9,4.7-6
		c-0.1-2.8-0.7-5.7-1.2-8.5c-0.5-2.7-1.2-5.3-1.6-8c-0.6-3.8-1.9-5-6-5c-2.1,0-4.1,0-6.8,0c0.7-1.2,0.9-2.2,1.4-2.3
		c3.5-1.1,7.1-2.9,10.7-2.8c1.9,0,4.5,3.1,5.3,5.3c2.3,6.6,3.9,13.5,5.9,20.3c1.3,4.3-0.2,6.7-4.8,7.3c-4.6,0.6-9.5,5.1-10.6,8.8
		c-0.9,3.2,0.3,4.4,3.1,5c0.5,0.1,1,0.5,1.7,0.8c-0.4,0.5-0.6,1-0.9,1c-5,1.1-10,2.2-15,3.3c-3.2,0.7-3.9,2.1-2.5,5
		c1.9,4,4.6,5.1,8.6,3.4c2-0.9,2.4-0.7,4.4,3.5c-3.4-0.3-6.3-0.1-8.8-1c-3-1.1-5.7-2.2-9-0.9c-2.4,0.9-4.6,1.1-4-2.8
		c0.3-2.1-1.2-3.2-3-2.7c-4.4,1.3-9.3,0.2-13.3,3.7c-1.5,1.3-4.5,1-6.8,1.2c-0.6,0-1.7-0.9-1.7-1.4c0-0.6,0.7-1.5,1.4-1.9
		c1.8-1.1,3.7-2,5.5-2.9c-1.8-3.1-7-3.8-10.4-2.3c-2.7,1.2-5.8,2.1-8.7,2.4c-7.3,0.7-14.5,1-21.8,1.4c-2.3,0.1-4.6,0-7.3-0.3
		c3.8-2.4,2.2-4-0.1-5.5c-3.7-2.4-7.7-4.5-11-7.4c-3-2.7-4-7.3-9.3-7.9c-1-0.1-2.4-5-2.1-7.5c0.5-4.3-1.6-9.1,2.3-12.8
		c0.4-0.4,0.1-1.6-0.1-2.4c-0.2-0.8-0.8-1.5-1.1-2.3c-2.5-6.1-2.6-6.2-8.9-4.3c-0.2-0.5-0.7-1.2-0.5-1.6c2.6-4.9,1.2-11.9,8-14.5
		c0.7-0.3,1-1.6,1.5-2.4c0.5-1,0.8-2.3,1.6-2.9c3.9-2.6,5.9-6.7,8.5-10.2c0.7-1,1.9-1.5,2.8-2.4c1.1-1.1,2-2.4,3.2-3.4
		c1.2-1.1,2.5-2.5,4-2.7c0.9-0.1,2.3,1.6,3,2.8c0.9,1.6,1.2,3.7,2.2,5.3c0.6,1,1.9,1.6,3.2,2.6c-0.8,1.6-1.8,3.4-3.1,5.9
		c-2.2-2.1-4.3-3.8-5.9-5.9c-2.4-3-4.1-3.1-5.7,0.2c-0.9,1.8-3.2,3.4-1,5.7c-0.8,0.5-1.9,1.6-2.3,1.3c-3.3-1.6-4.4,0.7-6,2.7
		c-2.4,3.1-5.1,6-7.3,9.2c-0.7,1-1.1,3.1-0.6,4c1.3,2,3.4,3.5,4.9,5.5c1.2,1.6,1.7,3.7,2.8,5.4c1.7,2.6,3.5,5.2,5.7,7.3
		C804.5,218.9,806.7,219,809,219.9z"/>
	<path d="M927.1,357.8c-1.8,1.2-2.8,1.9-3.7,2.6c-1.6,1.2-4.6,2.3-2.6,4.7c1.4,1.7,5,3.7,6.4,3.1c6.5-3,13.1-0.7,19.5-1.7
		c2.6-0.4,5.6-0.6,7.6-2c1.6-1.2,1.9-4.1,2.8-6.3c1.1-2.9,2.2-5.7,3.2-8.7c1-3,2.1-6,2.8-9c0.2-1.1-1.1-2.4-1.3-3.6
		c-0.3-1.3-0.1-2.7-0.1-4c1.2,0.3,2.5,0.6,3.7,1c0.5,0.2,0.9,0.9,1.1,1.4c2.2,4.8-0.5,13.2-4,17.1c-2.7,2.9-4,7.2-5.9,10.8
		c6.4,3.7,14.1,1.3,17.8-4.8c1.6-2.7,4-4.9,6-7.3c0.4,0.2,0.7,0.5,1.1,0.7c-0.5,0.9-1.2,1.8-1.6,2.7c-0.6,1.8-1.6,3.6-1.4,5.3
		c0.1,0.7,2.9,1.5,4.4,1.4c5.1-0.2,10.2-0.4,15.2-1.4c5.4-1,10.7-2.8,16-4.4c1.6-0.5,3.1-1.5,4.7-2.1c2.3-0.9,4.7-1.6,7.1-2.4
		c0.2,0.4,0.4,0.8,0.7,1.1c-0.5,0.7-0.9,1.7-1.6,2c-8.4,3.8-16.5,7.9-26.2,7.9c-3.8,0-7.5,2.1-11.4,2.9c-3.3,0.7-6.7,0.8-10,1.3
		c-4.4,0.8-8.8,2.1-13.3,2.5c-6.8,0.7-13.6,0.7-20.4,1.2c-4.4,0.3-8.8,1.3-13.2,1.4c-7.1,0.1-14.2,1.3-21.3-1.3
		c-5.9-2.1-12.2-2.9-18.5-3.8c-6.9-1-14.2-0.5-20.7-2.5c-10.5-3.2-21.3-1.9-31.8-4.3c-0.7-0.2-1.3-0.8-2.4-1.6
		c1.5-0.9,2.4-1.5,3.5-2.2c-0.4-4.7-5.2-2-8.1-4.9c3.6,0,6.2-0.1,8.8,0c7,0.3,14.1,0.8,21.1,0.9c0.7,0,2.1-2,2.1-3
		c0-2.3-0.6-4.7-1.2-7c-0.7-3,0.2-4.7,3.4-5.3c3.2-0.6,2.7,1.8,3.3,3.7c0.9,2.7,2.1,5.2,3.3,8.1c-2.5,0.9-4.8,1.7-7.2,2.5
		c0,0.5,0,1.1,0,1.6c2.4,0.3,4.8,0.8,7.2,0.9c3.7,0,7.1-0.2,10.8,1.5c2.8,1.3,6.6,0.5,10,0.2c5-0.4,10-1.3,15-1.8
		c1.4-0.1,2.8,0.5,4.2,0.8c1.3,0.2,2.9,1,3.7,0.5c0.7-0.5,0.8-2.4,0.8-3.6c-0.1-1.4-0.5-3-1.1-4.3c-0.9-1.9-0.9-3.4,1.3-4.3
		c2.3-0.9,2.8,0.8,3.1,2.5C920.6,349.9,921.5,354.8,927.1,357.8z M845.7,355.9c0.7,0.9,1.1,2,1.7,2.1c3.7,0.8,7.2,3.9,11.1,0.5
		c0.5-0.4,1.4-0.5,2-0.4c5.8,1,11.6,2.2,17.4,3.2c3.5,0.6,7.1,0.9,10.7,1.5c5.4,0.9,10.9,2.1,16.3,2.8c5,0.6,6.1-0.3,8.5-5.8
		c-2.4-0.9-4.7-2.3-7.2-2.6c-3-0.3-6.2,0.4-9.3,0.4c-5.5,0-11,0.4-16.4-0.5c-4.4-0.7-9.1,1.5-13.3-1.5c-0.3-0.2-1.1,0.5-1.7,0.5
		c-3.1,0.1-6,1.4-9.3-0.7C853.2,353.3,849.5,354.3,845.7,355.9z"/>
	<path d="M311.1,109.7c1.8-4,4.7-7.8,5.2-12c0.5-4.1,2-9-1.7-12.8c2.5-3.3,4.2-3.7,7.8-1.7c0.8,0.4,1.6,0.8,2.4,1.1
		c3.6,1.3,5.4,3.7,5.3,7.6c0,4.1,0.3,8.2,0.3,12.3c0,3,1.3,4.2,4.4,4.3c3,0.1,4.4-1.1,4.5-4.1c0.2-4.9,0.7-9.7,0.9-14.6
		c0.1-1.8-0.8-3.6-0.7-5.4c0-1.2,1.2-3.3,1.5-3.2c7.2,1,14.8-0.4,21.5,2.9c1.5,0.7,3,3.1,3.1,4.8c0.6,6.1,0.5,12.2,0.8,18.3
		c0.1,3.3-2.2,3.7-4.2,2.8c-3.9-1.7-7.5-1.2-11.2,0c-1,0.3-2.3,0.4-3.3,0.2c-0.9-0.1-1.9-0.7-2.3-1.4c-0.3-0.4,0.3-1.7,0.9-2.2
		c5.7-5,5.5-11.6,4.4-18.2c-0.2-1.4-2.4-3.3-3.9-3.6c-2.2-0.5-3.6,1.3-3.8,3.6c-0.5,5.9-1.3,11.8-1.4,17.7c-0.1,7,0.2,14,0.6,20.9
		c0.1,1.8,1.1,3.6,1.5,5.4c0.2,0.8,0.5,2,0.1,2.4c-2.5,3-1.5,6.4-1.5,9.7c0,6.5,0.1,13,0.1,19.5c0,1.1-0.3,2.1-0.5,3.2
		c-0.3,0-0.6,0-0.9,0.1c-0.4-2.1-1.1-4.1-1-6.2c0.3-9.3,0.1-18.6-1.3-27.9c-0.8-5.5,0.3-11.2,0.2-16.9c0-1.5-0.9-3.8-2-4.4
		c-5-2.3-10.1-4.1-15.8-2.6c-2.9,0.8-6.1,0.8-9.1,1.2C311.6,110.4,311.3,110,311.1,109.7z"/>
	<path d="M330.9,195.7c0.2,2.1,0.4,3.9,0.6,6.1c-0.5,0.1-1.7,0.7-2.3,0.3c-2.3-1.3-4.4-2.8-6.5-4.4c-3.5-2.8-6.5-6.3-10.2-8.4
		c-3.9-2.2-8.3-2.4-12.1,1.3c-1.5,1.4-3.2,1.1-4.3-0.9c-1.1-2-2.2-3.9-3.4-5.8c-0.6-0.8-1.7-1.9-2.3-1.8c-0.8,0.1-1.7,1.3-2.2,2.2
		c-0.4,1-0.1,2.3-0.6,3.3c-0.9,1.7-1.8,3.4-3.2,4.7c-1.4,1.2-2.8,0.8-3.1-1.4c-0.1-0.9-0.1-1.8-0.3-2.6c-0.6-2.1-0.7-5.6-3.4-4.8
		c-2.2,0.6-4.8,3.5-5.3,5.8c-0.7,3.3-2,3.9-5.2,3.2c-0.1-1.1,0-2.3-0.3-3.5c-0.3-0.9-1.1-1.7-1.6-2.5c-0.6,0.8-1.5,1.6-1.7,2.5
		c-0.5,1.7-0.4,3.5-0.9,5.1c-0.3,0.9-1.1,1.7-1.7,2.6c-0.5-0.8-1.4-1.5-1.6-2.4c-0.4-1.5,0-3.4-0.7-4.7c-0.9-1.8-2.5-3.2-3.7-4.7
		c-1.1,1-2.3,2-3.2,3.1c-1,1.4-1.6,3.1-2.6,4.6c-1.5,2.5-2.9,5-6.6,2.3c-1.1-0.8-3.8-0.1-5.3,0.7c-3.4,1.9-6.8,2.9-10.7,2.1
		c-2.6-0.5-4,0.4-4.8,3.2c-2.1,7.3-6.3,7.4-12,6.8c-0.6-0.1-1-0.8-1.8-1.5c0.9-0.5,1.4-1.1,1.9-1c3.3,0.6,5.2-1.2,7.3-3.4
		c2.9-2.9,3-3.4-0.8-6c4.3-7.2,2.8-15,2.4-22.8c-0.1-1.1,1.2-2.3,1.9-3.4c0.9,1.1,2.4,2.1,2.5,3.3c0.4,3.9,0.5,7.9,0.4,11.9
		c0,1.2-1.6,2.4-1.6,3.5c0,1.5,0.4,3.6,1.5,4.3c1.8,1.3,2.8-0.2,3.2-2.1c0.2-1.2,1.1-2.3,1.2-3.5c0.3-2.3,1.7-2.6,3.5-2.3
		c6.5,1.3,7-0.8,7.4-7.6c0.1-1.2-0.7-2.5-0.6-3.7c0.1-0.9,0.9-1.8,1.3-2.7c0.6,0.6,1.6,1.2,1.8,1.9c0.5,2.7,0.6,5.4,1,8.1
		c0.2,1.2,0.5,3,1.3,3.5c0.8,0.5,2.5-0.2,3.7-0.7c0.9-0.4,1.4-1.3,2.2-2c3.1-2.8,7.2-2.3,10.2,0.7c1,1,3.3,0.7,4.9,0.9
		c1.6,0.2,3.3,0.4,4.9,0.2c1.1-0.1,2.6-0.4,3.2-1.2c0.9-1.1,0.9-2.9,1.7-4.1c0.8-1.2,2.1-2.1,3.1-3.1c0.8,1.1,1.7,2.1,2.4,3.3
		c0.4,0.9,0.3,2,0.7,2.9c0.5,1.1,1.4,2,2.1,3c1-0.8,2.1-1.6,3-2.5c0.8-0.8,1.2-1.9,2-2.6c3.3-2.8,4.5-2.5,6.5,1.3
		c0.5,0.9,0.8,1.8,1.3,2.7c2.8,4.6,3.7,4.7,7.5,1.1c0.1-0.1,0.2-0.1,0.3-0.2c2.7-3.2,5.2,1.4,6.7,0.6c3.2-1.6,4.9-1.7,6.4,1.8
		c0.4,0.9,2.3,1.8,3.4,1.7c5.8-0.5,5.8-0.6,6.4,4.8C326.3,195.5,326.3,195.5,330.9,195.7z M243.7,192c0.5,0.2,1,0.5,1.5,0.7
		c2.6-0.4,2.9-2.5,2.8-4.6c0-0.4-1.4-0.8-2.1-1.2C245.2,188.7,244.5,190.3,243.7,192z"/>
	<path d="M442.5,188.1c-1.9,0-3.7,0-5.5,0c-0.2-0.3-0.4-0.5-0.4-0.7c-0.2-1.9-0.4-3.8-0.7-5.6c-2.4,0.8-5,1.2-7.2,2.4
		c-2.1,1-3.8,2.8-5.7,4.2c-1,0.7-2.3,1.7-3.3,1.5c-4.3-0.7-5,2.1-5.8,5.2c-0.3,1.2-1.3,3.3-1.7,3.2c-2-0.3-4.2-0.8-5.7-2
		c-2.7-2.1-4.8-4.9-7.2-7.3c-0.4-0.4-1.1-0.8-1.6-0.8c-3.2,0.4-6.3,1.1-9.4,1.2c-5.2,0.2-10.4,0-15.6-0.1c-3.9,0-7.9-0.4-11.8-0.1
		c-3.5,0.3-6-1-8.1-3.5c-3.9-4.6-5.5-4.4-8.2,1c-1.1,2.2-2.1,4.5-3.4,6.7c-1.3,2.1-2.8,2.5-4.1-0.1c-0.7-1.3-1.3-2.7-1.6-4.2
		c-0.4-2.1-0.3-3.9,2.9-2.8c0.8,0.3,2.5-0.9,3-1.8c1.4-2.5,2.3-5.3,3.8-7.7c0.7-1.1,2.5-1.6,3.8-2.4c0.7,1.3,2.1,2.8,1.9,4
		c-0.4,3.1,1,4.3,3.6,5.1c1.6,0.4,3.2,0.9,4.5,1.7c2.9,2,5.7,1.1,7.4-1c3.7-4.6,8.7-3.5,13.3-3.6c3.7-0.1,7.4,0.4,11.1,0.7
		c2.2,0.2,4.4,0.5,6.6,0.8c0.6,0.1,1.3,0.4,1.8,0.3c6.4-1.9,12.8-1.4,19.3-1.3c5.3,0.1,11.5,1.1,15.9-4.2c2.2-2.6,5.3-1.1,5.9,2.3
		C441.1,182.2,441.8,185,442.5,188.1z M410.6,186.4c-1.2-1-2-2.1-2.6-2c-0.8,0.2-2.2,1.4-2.1,2c0.2,0.9,1.3,1.7,2.1,2.5
		C408.7,188.2,409.4,187.5,410.6,186.4z"/>
	<path d="M149.3,61.6c3.1-2.1,6.2-4,9.2-6.2c6.6-5,5.9-11.6-1.7-15.3c-4.1-2-7.8-1.1-10.2,2.8c-2,3.4-3.6,7-5.5,10.4
		c-1.7,3.1-3.4,6.3-5.4,9.2c-2.1,3.1-0.7,3.7,2.2,3.5c0.8,0,1.7,0.1,1.5,0.1c1.1,3.7,2.2,6.8,2.8,9.9c0.4,2.1,0.3,4.6-0.4,6.6
		c-0.9,2.5-0.2,3.6,2,4.1c2.8,0.6,3.4,2.4,3.4,4.9c0,3.7,0.3,7.5,0.4,11.2c0,1.2-0.2,2.3-0.3,3.5c-0.5,0-0.9,0.1-1.4,0.1
		c-0.3-1.7-0.4-3.4-0.9-5c-1.1-3.5-2.2-7-3.6-10.4c-0.3-0.7-1.5-1.2-2.4-1.3c-0.4,0-1.2,1.3-1.2,2c-0.3,4.8-0.3,9.6-0.6,14.4
		c-0.3,4.1-0.8,8.2-1.4,13.1c-3.1-3.3-5.5-5.8-8.3-8.7c6-0.1,5.6-4.1,5.9-7.7c0.3-3.7,0.9-7.4,1.1-11.1c0.1-1.2-0.4-2.7-1-3.8
		c-1.8-2.9-4-5.4-5.7-8.4c-0.6-1.1-0.6-3-0.2-4.3c1.7-5.5,3.3-11,5.6-16.2c2.7-6,6.1-11.8,9.6-17.4c2.6-4.1,12.9-6.9,17.4-5.3
		c2.6,0.9,6.6,7.4,6.8,10.6c0.4,8.3-2.3,16-5.4,23.5c-0.9,2.2-3.3,3.6-4.9,5.6c-2.1,2.5-3.9,5.3-6,7.8c-0.6,0.7-1.7,0.9-2.5,1.4
		c0.1-1,0-2.2,0.5-2.9c1.8-2.7,3.9-5.3,5.7-7.9c0.5-0.7,0.8-1.6,0.9-2.4c0.1-1.9,1-2.7,2.5-4c2.1-1.9,3.5-5,4.3-7.8
		c0.6-1.9-2.5-2.9-4.4-1.7c-2.3,1.5-4.8,2.9-7.2,4.3C150,62.7,149.7,62.1,149.3,61.6z M133.7,78.6c1.3,1.4,2.1,2.3,2.9,3.2
		c0.8-1.1,2.2-2.1,2.4-3.2c0.1-0.7-1.5-2-2.6-2.3C136,76.1,134.9,77.5,133.7,78.6z"/>
	<path d="M375.6,173.9c-0.4-2.7-1-5.4-1.2-8.1c-0.3-5.7-0.5-11.4-0.5-17.1c0-3.7,0.8-7.4,0.7-11.1c-0.2-5.6-0.9-11.2-1.4-16.7
		c-0.1-1.6-0.4-3.2-0.4-4.8c-0.2-6.5,0.5-7.3,6.8-6.7c2.9,0.3,4.2-0.9,4.2-3.7c0-3.9-0.1-7.7,0.1-11.6c0.1-1.8,0.3-3.8,0.8-5.5
		c0.7-2,2-2.8,4.4-2.1c2.3,0.7,4.8,0.7,7.1,1.4c1,0.3,2.1,1.7,2.3,2.7c0.6,4.1,0.7,8.2,1.3,12.3c0.3,2.1,0.6,4.8,2,5.8
		c1.1,0.8,3.8-0.5,6.5-1.1c1.3,0.9,3.4,2.2,1.7,5.3c-0.4,0.8-0.2,2-0.2,3c0.1,15.6,0.3,31.2,0.4,46.8c0,1.2-1,2.4-1.6,3.5
		c-0.5-1.1-1.4-2.2-1.4-3.4c-0.3-15.6-0.5-31.2-0.6-46.8c0-2.9-0.4-4.7-4-4.7c-5.2,0.1-10.4-0.3-15.7-0.3c-2.5,0-5.2-0.2-7.6,0.5
		c-1.2,0.3-2.1,2.3-2.9,3.7c-0.4,0.7-0.2,1.7-0.1,2.6c0.3,16.2,0.6,32.4,0.9,48.7c0,2.5,0.2,4.9,0.4,7.4
		C376.9,173.8,376.2,173.9,375.6,173.9z"/>
	<path d="M929.8,167.2c-7.4,2-7.2,2-7.9,9.9c-0.3,2.7,0.6,4.5,2.7,4.8c2.1,0.3,4.8-0.1,6.4-1.3c1.8-1.4,2.5-4,4.2-6.9
		c0.2,1.7,0.5,2.8,0.3,3.7c-0.8,3.5,0.6,4.6,3.9,4.5c3.3-0.2,6.6-0.2,9.9-0.4c2.2-0.2,3.6-4.3,2.5-7.2c-0.2-0.5-0.6-1-0.9-1.5
		c3.1-2.2,4-1.9,4.5,1.3c0.1,0.6,0.4,1.3,0.2,1.8c-1.7,5.3,2.4,7.3,5.7,9.4c1.1,0.7,3.1,1,4.1,0.4c0.9-0.6,1.3-2.5,1.5-3.8
		c0.2-1.8-0.3-3.7-0.3-5.6c0-0.8,0.9-1.5,1.4-2.2c0.5,0.7,1.4,1.5,1.4,2.2c0,3.7-0.6,7.5-0.3,11.1c0.2,2.7,1.5,5.4,2.3,8.2
		c-6.1,1.7-12.9,3.5-19.6,5.3c-2.7,0.7-4.7,0.1-5.1-3.1c-0.1-0.6-0.3-1.2-0.4-1.8c-0.9-5.5-0.8-5.3-6.4-4.2
		c-1.6,0.3-3.5-0.2-5.2-0.7c-5.3-1.4-10.4-4.2-16.3-2.1c-2.2,0.8-4.8-1.1-4.4-3.9c0.3-2.5,1.3-5.6,3.1-7.2c2.3-2.2,3.2-4.2,2.8-7.2
		c-0.6-4.5,4-3.6,5.9-5.5c0.6-0.6,2.8,0.3,4.3,0.6C930,166.4,929.9,166.8,929.8,167.2z M963.6,191.9c-1.8-1.9-2.7-3.7-3.9-3.9
		c-2.6-0.4-2.8,1.9-2.9,3.8c0,1.7-0.4,4.1,2.2,3.8C960.4,195.4,961.6,193.6,963.6,191.9z"/>
	<path d="M754,247.1c0.2-0.5,0.3-0.7,0.3-0.9c0.3-1.4,0.5-2.8,0.8-4.1c0.7,1.4,1.8,2.7,2.1,4.2c0.7,3.5-1.1,5-4.6,4.9
		c-3.8-0.2-5.8,1-6.9,5.4c-1.5,5.7-4.8,11-7.4,16.5c-0.6,1.2-1.9,2.3-2.1,3.5c-0.7,4.8-3.5,4.6-7.5,4.4c-8.6-0.4-17.2,0-25.8,0
		c-2.4,0-4.9-0.3-8.1-0.6c0.6-2.3,1.7-4.5,1.6-6.6c-0.2-3.5,0.8-6.5,3-8.8c1.6-1.6,4-2.6,6.2-3.3c1.8-0.5,4-0.4,6-0.1
		c6.3,0.9,11.4-2.1,16.7-4.5c1-0.5,2.5-0.9,3.4-0.5c0.6,0.3,1.2,2.1,0.8,2.9c-0.4,0.9-1.7,1.8-2.7,2c-6.2,1.5-12.4,2.8-18.6,4.4
		c-2,0.5-4,1.6-5.6,2.9c-0.8,0.6-0.8,2.3-1.1,3.5c1-0.2,2.1-0.3,3.1-0.5c0.4-0.1,0.7-0.2,1.4-0.4c-0.1,0.8-0.1,1.4-0.2,2.1
		c-0.2,1.3-0.3,2.6-0.5,3.9c1.5,0.2,3.4,1,4.6,0.4c2.8-1.3,5.3-3.3,8.1-4.8c1.2-0.7,2.8-1.4,4-1.2c4.2,0.7,8-0.2,11.4-2.3
		c1.1-0.7,1-3.3,1.5-5c-1.3-0.3-2.8-1.1-3.9-0.7c-1.4,0.4-2.6,1.7-3.8,2.6c-0.2-0.3-0.5-0.6-0.7-0.9c1.5-1.1,2.9-2.8,4.7-3.3
		c3.7-1.2,5.4-3.4,6-7.2c1.3-8.1,1.4-8.1,0-12.3c2.8-0.2,5.3-0.4,8.6-0.7c-0.7,1.1-1,1.4-1.1,1.8c-0.5,1.3-1,2.5-1.5,3.8
		c1.4,0.1,2.8,0.3,4.2,0.3C751.7,247.6,752.9,247.2,754,247.1z"/>
	<path d="M606.5,282.9c-0.4,3.4-0.7,6.1-1.1,8.7c-0.5,2.9,1.1,4.6,3.6,4.6c9.1,0.3,18.2,1,27.2,0.2c4.1-0.4,7.6-1.7,11,1.5
		c0.3,0.3,1.2,0.5,1.3,0.4c2.9-3.2,6.8-1.4,10.2-1.9c3.4-0.4,2.8-2.7,2.6-4.7c-0.2-2,0.8-4.9-3-4.8c-0.7,0-1.6-0.8-2.2-1.4
		c-0.2-0.2,0.3-1.6,0.4-1.6c0.9,0,1.9,0.1,2.7,0.5c4.2,2.5,8.1,5.6,13.5,3.1c0.4-0.2,2.2,1.3,2.3,2.2c0.5,4.8,4.9,3.2,7.3,4.5
		c1.9,1.1,4,0.2,4.6-2.7c0.3-1.5,1.3-2.8,2.5-5c2,4.3,0.5,7.5-0.6,10.6c-1.1,3.3-4.4,3-6.9,3c-5.4-0.1-10.8-1.1-16.2-1
		c-6.5,0.1-13.1,0.9-19.6,1.4c-3.1,0.2-6.2,0.3-9.2,0.5c-10.6,0.7-21,0.1-31-4c-0.8-0.3-2-1.3-2.1-2c-0.2-3.3-0.2-6.6,0.1-9.9
		C603.9,284.5,605.3,283.9,606.5,282.9z"/>
	<path d="M503.6,141.1c-0.4-4.5-1.1-9-1.1-13.5c-0.1-7.1,0.2-14.2,0.3-21.3c0-3.6,0.1-7.2-0.1-10.8c-0.2-3.9-2.6-5.3-6.1-3.9
		c-1.8,0.7-2.7,3.3-5.2,2.3c-0.1,0-0.7,0.9-0.6,1.2c0.2,0.5,0.7,1.2,1.1,1.2c0.8,0,1.6-0.5,2.9-0.9c0.2,1.6,0.6,3,0.7,4.4
		c0.2,4.6,0.4,9.1,0.5,13.7c0,0.8-0.2,2.2-0.5,2.3c-0.8,0.2-1.8-0.2-2.7-0.5c-2.4-0.7-4.8-1.9-7.3-2c-2.8-0.2-5.4-2.1-4.3-4.7
		c2.2-5.5-0.9-10.5-1.4-15.7c-0.3-3.1,0.3-3.8,3.1-3.7c5.1,0.1,10.2,0.2,15.3,0c1.3,0,2.6-1.1,4.6-2c3.6,18,2,36,2.4,53.9
		C504.6,141,504.1,141,503.6,141.1z"/>
	<path d="M253.7,80.5c3.2,4.2,4.8,9.4,1.3,15.7c-0.9,1.7,0.1,4.4,0,6.6c-0.1,2.8,1.6,3.6,3.9,4c0.4,0.1,0.6,0.9,1,1.4
		c-4.9,1.9-7.2,1.1-10.6-3.6c-2.8-4-3-4-5.8-0.2c-3.2,4.4-6.1,5.8-9.1,4.4c-0.5-0.2-0.9-0.8-1.2-1.1c0.2-0.4,0.3-0.8,0.4-0.8
		c1.8-0.8,5-1.1,5.3-2.3c0.9-3,0.7-6.4,0.6-9.6c-0.1-3.7-0.9-7.3-1-11c-0.2-4.4,5.2-6.9,9.7-4.8C249.7,79.7,251.2,79.9,253.7,80.5z
		 M243.2,92.7c0-2.7,0-4.4,0-6.2c-0.8,0.3-1.8,0.3-2.2,0.8C239.7,89.1,240,90.8,243.2,92.7z"/>
	<path d="M446.8,191.4c0.2-1.4,0-3.1,0.8-4.2c3-4.3,6.3-8.4,9.5-12.5c1.2-1.5,2.8-1.5,3.4,0.4c0.6,1.7,0.8,3.6,0.6,5.4
		c-0.4,2.7,0.5,3.7,3,2.9c1.6-0.5,3.2-1.2,4.6-2.2c2.4-1.8,4.4-4.2,7-5.8c0.9-0.6,2.9,0.2,4.3,0.7c0.6,0.2,0.8,1.5,1.1,2.3
		c1.9,4.8,3.5,5.1,6.9,1.3c0.6-0.6,0.9-1.5,1.6-2.1c0.8-0.7,1.7-1.5,2.6-1.6c0.5-0.1,1.4,1.3,1.6,2.1c0.7,2.8,2.3,2.7,4.8,2.5
		c5.8-0.4,11.6-0.4,17.4-0.2c1.3,0,3.6,1.6,3.5,2.4c-0.2,2.1-1,4.4-2.2,6.2c-1.2,1.7-3.2,2.9-5.3,4.7c-1.2-2-3.1-4.4-4-7.1
		c-0.8-2.6-2.2-3.1-4.4-2.7c-2.1,0.3-4.1,1.1-6.2,1c-1.3,0-2.8-0.9-3.9-1.8c-1.9-1.6-3.3-2.6-4.2,0.7c-0.8,2.9-3.2,4.2-5.7,3.9
		c-1.4-0.2-2.7-2.5-3.7-4c-0.7-1-0.7-2.4-1.2-3.5c-0.4-0.9-1.1-2.4-1.7-2.4c-0.9,0-2,0.9-2.6,1.7c-1.1,1.3-1.7,3.3-3,4.2
		c-2.6,1.9-5.6,3.3-8.5,4.7c-0.4,0.2-1.7-1.1-2.2-2c-1-1.7-1.7-3.5-2.9-6.2c-3.4,4.3-6.3,8.1-9.2,11.8
		C447.8,191.7,447.3,191.5,446.8,191.4z"/>
	<path d="M449.5,152.6c-0.5-4.4-0.9-8.9-1.5-13.3c-0.4-3.3,0.8-4.9,4.3-4.8c3.1,0.1,6.2-0.3,9.3-0.1c3,0.2,3.7,1.9,2.4,4.6
		c-0.6,1.3-1,2.8-1,4.2c0,5.5,0,11,0.3,16.5c0.1,2.6-0.9,3.6-3.2,3.1c-3.4-0.7-6.8-1.5-10.2-2.5c-0.6-0.2-1-1.6-1.1-2.5
		c-0.1-1.7,0.2-3.5,0.3-5.2C449.3,152.6,449.4,152.6,449.5,152.6z"/>
	<path d="M584.8,99.6c-1,1.6-1.8,3.3-2.9,4.8c-0.9,1.2-2.1,2.8-3.4,3c-2.9,0.5-6,0.1-8.9,0.4c-2.6,0.2-3.9-1-3.8-3.4
		c0.3-6.5-3.3-13-0.1-19.5c0.1-0.3,0-0.7,0.1-1.1c0.2-2-2.7-5.3,1.2-5.7c5.6-0.4,10.4,3.7,10.2,7.5c-0.1,2.1-0.3,4.2-0.2,6.4
		c0.2,2.9,1.1,4.9,4.7,5c1.6,0,3.1,1.3,4.7,1.9C585.7,99.1,585.2,99.3,584.8,99.6z"/>
	<path d="M485.9,162.8c-1.1-0.2-3.3-0.5-5.4-0.8c0.5-1.9,0.6-4.2,1.7-5.8c2.7-4.1,0.9-8-0.2-11.8c-2.7-9.9-2.5-10.4,7.4-9.7
		c2.2,0.2,5.2-0.1,6.2,1.2c1.1,1.4,0.2,4.3,0.2,6.5c0,4.7,0.2,9.4,0,14.1c-0.2,5.9-1.1,6.6-7,6.3
		C488.2,162.7,487.6,162.8,485.9,162.8z"/>
	<path d="M420.8,162.1c-3-5.4-2.1-10.7-1.2-16.1c0.6-3.4,0.3-7.1-0.1-10.6c-0.3-2.7,1.3-3.2,3.3-3.4c2.3-0.1,4.8-0.4,7,0.1
		c1.1,0.3,2.7,2,2.7,3.2c0.3,7.6,0.4,15.2,0.3,22.8c-0.1,3.8-2.7,5.2-6,3.4C423.7,159.8,423.7,159.8,420.8,162.1z"/>
	<path d="M736.9,21.2c-0.4,2.8-0.9,5.6-1.3,8.4c-0.2,1.5-0.1,3-0.2,4.5c1.6-0.7,3.6-1,4.7-2.2c3.5-3.4,6.5-7.4,10.1-10.7
		c1.2-1.1,4.3-1.7,5.5-0.9c3,1.8,5.6,1.6,8.5,0.7c0.8-0.2,1.8,0,2.6,0.3c0.3,0.1,0.5,1.4,0.2,1.7c-0.6,0.6-1.5,1-2.3,1.4
		c-0.1,0.1-0.2,0-0.4,0c-5.2-1.2-10.1-1.5-11.9,5.6c-1.4-1-2.2-2.1-3.1-2.2c-1.4-0.1-3.8,0.3-4,0.9c-1.2,5.5-6.7,7.6-9.3,11.9
		c-2.1,3.3-4.6,6.6-5.7,10.3c-1.3,4.7-1.3,9.7-1.8,14.6c-0.3,2.8-0.5,5.7-1,8.5c-1.2,5.9-2.6,11.7-3.9,17.5
		c-0.2,0.7-0.7,1.2-1.5,2.4c0-3.4-0.9-6.5,0.2-8.7c3.9-7.9,2.6-16.3,3.4-24.5c0.8-7.1,1.1-14.4,5.7-20.5c0.6-0.9,0.4-2.4,0.6-3.6
		c0.9-5.2,1.8-10.3,2.6-15.5C735.5,21,736.2,21.1,736.9,21.2z"/>
	<path d="M385.3,137.8c4.2,3.8,0.3,9,2.6,13.7c0.9-1.5,2.4-2.9,2.6-4.4c0.5-3.7,0.4-7.4,0.7-11.1c0.1-1.4,0.5-2.7,0.8-4
		c1.8,0.8,4.8,1.1,5.3,2.4c1.5,3.9,2.4,8,2.9,12.2c0.5,4.3,0.1,8.7,0.2,13c0.1,2.4-0.5,3.9-3.4,3.4c-3-0.5-6-1-9-1.4
		c-2.4-0.4-2.5-1.9-2.6-4c-0.3-5.6-0.9-11.1-1.4-16.7c-0.1-0.9,0.1-1.8,0.1-2.8C384.5,137.9,384.9,137.9,385.3,137.8z"/>
	<path d="M366.5,152.1c0,1.9,0,3.7,0,5.6c0.1,5.1-3,7-7.7,4.8c-1.3-0.6-2.8-0.8-4.1-1.4c-0.9-0.4-2-1.2-2.1-2.1
		c-0.5-2.8-0.7-5.7-1.1-8.5c-0.3-2.5-0.5-5.1-1.1-7.6c-1-3.7,0.3-5.6,4.1-5.3c2.6,0.2,5.6-0.1,7.6,1.1c1.9,1.1,3.4,3.7,4.1,5.9
		C367.1,147,366.5,149.6,366.5,152.1C366.5,152.1,366.5,152.1,366.5,152.1z"/>
	<path d="M413.8,110.9c5.8-8.4,7.4-16.4,1.3-24.5c2.4-2,7.4-1.4,9.7,1.9c1.3,2,2.3,2.1,4.2,1c2.6-1.4,3,0.3,2.9,2.4
		c-0.2,2.7-0.7,5.5-0.6,8.2c0.2,3.6,0.9,7.2,1.4,11C427.4,110.9,421.1,110.9,413.8,110.9z M427.1,96.4c0.5-0.4,1.1-0.8,1.6-1.2
		c-0.6-1.2-1.3-2.4-1.9-3.6c-0.8,0.6-1.6,1.2-2.4,1.8C425.3,94.5,426.2,95.4,427.1,96.4z"/>
	<path d="M218.5,85.3c-1,4.5-2.4,8.9-2.8,13.4c-0.2,1.9,1.7,4,2.9,5.8c0.4,0.6,1.7,0.5,2.3,1.1c0.6,0.6,1,1.7,1,2.5
		c0,0.3-1.4,0.9-2.2,0.9c-4.2,0.1-8.4,0.2-12.5,0c-0.7,0-1.8-1.3-1.9-2.1c-0.5-5.1-0.7-10.3-1-15.4c-0.1-2.6-0.5-5.3-0.1-7.8
		c0.6-3.6,4.2-2.6,6.4-3C214.2,80.1,217.7,82.7,218.5,85.3z M206.3,90.3c1.8,1.5,2.8,2.6,4,3.1c1,0.4,2.3,0.1,3.5,0
		c-0.4-1.8-0.3-4.1-1.3-5.4c-0.7-0.8-3.3-0.6-4.7-0.1C206.9,88.3,206.5,90,206.3,90.3z"/>
	<path d="M604.7,154.7c-1-0.5-1.9-0.7-2.4-1.2c-1.4-1.7-2.7-1.6-4.6-0.7c-3.8,1.7-5.2,0.3-5.2-3.8c0-5.7-0.3-11.4-0.5-17.1
		c-0.2-3.4,0.4-3.9,3.8-3.1c1,0.2,2.2,0.1,3.2-0.2c4-1,5.8,0.2,5.9,4.2c0.2,6.6,0.2,13.2,0.3,19.9
		C605.2,153.2,605,153.8,604.7,154.7z"/>
	<path d="M224.2,134.8c4.4-1.1,4.3-4.9,4.2-8.5c-0.4-11.7-0.9-23.4-1.3-35.1c0-1.2,0.8-2.5,1.3-3.7c0.7,1.3,2,2.5,2,3.8
		c0.3,6.1,0.2,12.2,0.4,18.2c0.5,12.3,1.1,24.5,1.6,36.8c0.2,5.6,0.4,11.1,0.3,16.7c0,1.9-1,3.8-1.6,5.8c-0.6-0.1-1.2-0.2-1.8-0.3
		c0-3,0.1-6.1,0-9.1c-0.3-7-0.5-13.9-1.2-20.8C228,137.3,225.8,136.2,224.2,134.8z"/>
	<path d="M457.4,110.8c-0.2,0-0.5,0-0.7,0c-6.4,0-8.2-2.3-6.3-8.7c1-3.2,2.1-6.2,0.5-9.7c-1-2.3,0.8-3.3,3.1-3.1
		c2.8,0.2,5.6,0.3,8.3,0.8c0.8,0.1,1.9,1.3,1.9,2c-0.1,4.7-0.8,9.3-0.6,14c0.2,4.9,0.5,5-4.5,4.8C458.6,110.9,458,110.9,457.4,110.8
		C457.4,110.9,457.4,110.8,457.4,110.8z"/>
	<path d="M775.2,265.6c-3.2-1.2-6.1-2.1-8.8-3.6c-0.8-0.4-1.3-2.6-0.9-3.6c1-2.2,1-5.7,4.6-5.5c3.3,0.1,6.7,0.4,10,1.2
		c3.6,0.9,6.5-0.3,7.7-3.9c0.4-1,1.4-2.6,1.8-2.5c2.1,0.4,4.1,1.2,6.1,1.9c-0.5,1.2-0.9,2.4-1.5,3.5c-1,2.3-2.7,3.4-5.3,3
		c-0.6-0.1-1.6,0.2-1.7,0.5c-1.4,3.9-4.9,5.1-8.1,6.7C777.9,264,776.6,264.8,775.2,265.6z"/>
	<path d="M997.3,312.7c2.8-3.8,26.5-11.7,29.8-10.4c-1.6,2.4-3.1,4.6-4.6,6.8c-0.5,0.7-0.7,1.5-1,2.3c-0.4,0.9-0.4,2.1-1,2.7
		c-3,3.3-6.1,6.5-9.2,9.5c-4,3.8-8.4,7.2-11.9,11.7c-2.9,3.7-7.1,6.5-10.7,9.7c-1.5,1.4-3.1,2.7-4.6,4.1c-0.3-0.2-0.6-0.5-0.9-0.7
		c1.2-1.5,2.2-3.7,3.8-4.3c5.4-2.1,7.2-7.6,11.1-11.1c1.5-1.3,2.9-2.7,4.2-4.2c4.6-5.2,9.1-10.4,13.5-15.7c0.7-0.9,0.6-2.5,0.8-3.7
		c-1.3-0.1-2.7-0.5-3.9-0.2c-3.1,0.9-6.1,2.3-9.3,3.2C1001.5,312.8,999.4,312.6,997.3,312.7z"/>
	<path d="M578.4,141.5c-2.7,1.6-2.1,3.5-0.6,5.8c0.6,1,0.9,2.7,0.5,3.7c-0.3,0.7-2.1,0.9-3.3,1c-2.3,0.1-4.6-0.2-7.7-0.3
		c0,0.1-0.6-0.7-0.6-1.6c-0.3-6-0.6-12.1-0.6-18.1c0-0.9,1-2.4,1.7-2.6c2.3-0.5,6.3-1.3,6.9-0.3c1.6,2.7,4.7,5.4,2.8,9.4
		C577.1,139,578,140.3,578.4,141.5z"/>
	<path d="M513.4,134.2c1.1-0.1,1.2-0.1,1.3-0.1c6.3,0.8,6.9,4.9,6.4,10.3c-0.4,4.8-0.2,9.7-0.1,14.6c0.1,2.3-0.2,3.8-3.1,3.8
		c-3.3,0-6.2-1.6-6.2-4c-0.2-6.6-0.4-13.2-0.3-19.8C511.5,137.3,512.8,135.6,513.4,134.2z"/>
	<path d="M900.3,96c-7.5,4-8.1,6.8-3.8,13.2c0.4,0.7,0.6,1.6,0.6,2.4c0.1,2.7,0.4,5,3.8,5.3c0.6,0.1,1.1,1.5,1.7,2.3
		c-0.8,0.3-1.7,0.9-2.5,0.8c-4.3-0.8-8.7-1.7-12.9-2.8c-0.8-0.2-1.7-1.8-1.7-2.7c-0.2-5.6-0.3-11.2-0.1-16.8c0-1,1.3-2.8,2-2.8
		C891.4,95,895.4,95.5,900.3,96z"/>
	<path d="M240.6,157.2c0-4.8,0-9,0-13.3c0-1.6,0.3-3.2,0.2-4.8c-0.3-6.4-0.4-6.3,5.8-6.2c2.5,0,5-0.1,7.5-0.1c3,0,5.2,0.9,4.5,4.6
		c-0.6,3.4-1.1,6.8-1.8,10.1c-0.1,0.5-1.1,1.4-1.5,1.3c-0.7-0.2-1.5-0.9-1.6-1.6c-0.5-2.2-0.5-4.5-1.1-6.6c-0.3-1-1.5-1.7-2.3-2.6
		c-0.7,1.1-1.8,2.1-2,3.3c-0.2,1.3,0.5,2.7,0.7,4C250.2,152,248.4,154.6,240.6,157.2z M247.3,145.2c-0.1,0-0.2,0-0.4,0
		c0.1-1,0.3-2,0.2-3c-0.1-0.8-0.7-1.6-1.1-2.4c-0.8,0.5-2.1,0.9-2.2,1.5c-0.3,3.1-0.3,6.2-0.3,9.2c0,0.5,0.9,1.3,1.4,1.3
		c0.5,0,1.5-0.7,1.6-1.2C247,148.8,247.1,147,247.3,145.2z"/>
	<path d="M870.2,178.3c-0.6-3.1-1.1-6.2-1.7-9.3c3-2.5,5.4-8.1,3.1-10.7c-2.3-2.6-6.6-3.4-9.7-4.8c0.5-2.7,1.2-6.4,2-10.7
		c2.3-0.1,5.6,0.4,8.2-0.6c2.7-1.1,4.8-3.7,7.3-5.8c-0.5,1.8,1.4,4.3-3,5c-1.3,0.2-2.9,3.5-3,5.4c-0.3,4.9,0.2,9.9,0.4,14.9
		c0.1,3.1,1.4,4.6,4.7,4.1c1.3-0.2,2.8,0.2,4.1,0.4c0,0.5,0,0.9,0,1.4c-1.7,0-3.4,0-5.2,0c-2.6-0.1-3.9,0.9-4.2,3.6
		c-0.3,2.5-1.1,4.9-1.7,7.3C871.1,178.4,870.6,178.3,870.2,178.3z"/>
	<path d="M811.9,136.8c4.2-1.5,6.1,0.2,6.7,4.4c1.8-1.4,3.2-2.5,5.2-4c0.2,1.4,0.5,2.3,0.5,3.1c0,5.5-0.1,10.9-0.1,16.4
		c0,1.8,0.4,4.2-2.3,4.3c-2.7,0.2-5.2,0.1-6.8-3.2C811.7,151.2,813.2,144,811.9,136.8z"/>
	<path d="M842.3,102.6c1.4,0.2,2.4,0.4,3.7,0.7c0,2.9-0.3,5.6,0.1,8.3c0.2,1.3,1.5,3.1,2.6,3.5c1.2,0.4,2.9-0.5,4.7-1
		c0.1,0.9,0.2,2.5,0.4,4.1c-5.7-0.6-11-1.1-17-1.7c-0.2-3.8-0.4-8.2-0.7-12.7c-0.1-1.2,0.1-2.5,0-3.7c-0.5-6.4,1.6-8.3,7.9-6.8
		c0.7,0.2,1.7,0.9,1.8,1.5c0.1,0.6-0.6,2-1.1,2C840.8,97.4,842.4,100.1,842.3,102.6z"/>
	<path d="M793.6,149.2c4.5-1.2,4.5,1.9,5.2,4.4c0.9,3.1,0.1,5.7-2.2,7.8c-0.4,0.3-2,0.1-2.2-0.4c-1.9-3.6-4.4-4-8.3-0.2
		c0-6.6-0.3-11.7,0.2-16.8c0.1-1.2,2.7-2.2,4.2-3.1c2.1-1.3,4.4-2.4,6.7-3.7C799.8,142.8,795.9,145.3,793.6,149.2z"/>
	<path d="M862.4,118.7c-0.4-1.8-0.8-3-0.8-4.2c-0.3-5.7-0.5-11.4-0.7-17.1c0-0.7,0.1-2,0.3-2c2.7-0.3,5.4-0.9,8-0.5
		c1.1,0.2,2.5,2.4,2.6,3.8c0.4,5.6,0.3,11.3,0.4,16.9c0,0.9-0.4,1.9-0.7,3.2c-1.8-1.9-3.1-3.3-4.4-4.7
		C865.7,115.4,864.4,116.7,862.4,118.7z"/>
	<path d="M1034.9,213.6c-0.7,0.2-1.4,0.7-2,0.6c-6.5-1.4-13-2.9-19.5-4.5c-0.9-0.2-2-0.7-2.6-1.5c-2.2-2.8-4.6-3.3-7.9-1.8
		c-0.8,0.4-2.2-0.6-3.3-1c-2.5-1-4.9-2.3-7.5-3c-2.4-0.6-2.6-1.6-1.3-3.4c2.6-3.5,5-3.5,7.7-0.1c0.7,0.9,1.2,1.9,1.9,2.8
		c1.6,2.1,3.4,2.7,5.3,0.5c2.1-2.5,3.5-1.3,5.1,0.5c2.4,2.8,3.3,2.6,5.5-0.3c0.5-0.7,1.8-1.4,2.4-1.2c0.8,0.3,1.9,1.5,1.8,2.3
		c-0.2,4.4,1.8,5.8,6.1,5.9c2.9,0.1,5.7,1.7,8.5,2.7C1035.1,212.6,1035,213.1,1034.9,213.6z"/>
	<path d="M473.2,88.5c0.2,1.5,0.6,3,0.6,4.6c0.2,5,0.2,10,0.4,15c0.1,1.3,0.7,2.6,0.9,3.9c0.1,1-0.1,2.1-0.3,3.2
		c-0.2,0.9-0.8,1.8-0.8,2.7c0.1,6.6,0.5,13.2,0.5,19.8c0,3.6-0.8,7.1-0.7,10.7c0.1,5.1,0.6,10.1,0.8,15.2c0,1-0.7,2.1-1.1,3.1
		c-0.5-1.1-1.5-2.1-1.5-3.2c-0.1-10.1,0.2-20.2,0-30.2c-0.2-13.2-0.7-26.4-1-39.6c0-1.7,0.3-3.4,0.5-5.1
		C472.1,88.4,472.7,88.4,473.2,88.5z"/>
	<path d="M829.7,161.3c0.5-1.9,1.2-4.3,1.9-7c4.3,1.1,6.2-0.3,5.9-4.9c-0.1-1,2-2.5,3.4-3.3c3.1-1.6,3.2-2.1,0-4.6
		c-0.7,0.9-1.5,1.7-2.2,2.6c-0.3,0-0.7,0-1,0c-0.1-1.8-0.8-3.8-0.2-5.3c0.4-0.9,2.6-1.5,4-1.6c1.9-0.2,3.9,0.2,6,0.4
		c0,2.5-0.1,4.7,0,6.9c0.1,2.9,0.4,5.6,4.5,5.2c0.6-0.1,1.4,1.7,2.1,2.6c-0.9,0.4-2.1,1.5-2.8,1.2c-3-1.2-5.5-0.4-8.2,1
		c-1.4,0.8-3.1,0.7-4.5,1.5C835.6,157.6,832.8,159.4,829.7,161.3z"/>
	<path d="M521,102.9c0,2.2,0,4.5,0,6.7c0,3.9-3.3,6-6.6,3.7c-1.6-1.1-3.3-3.5-3.4-5.4c-0.1-3.5,1-7,1.5-10.5
		c0.2-1.1,0.2-2.2,0.2-3.3c-0.1-1.8-0.5-3.9,2.2-3.8c2.5,0.1,5.6-0.3,6,3.4C521.2,96.8,521,99.9,521,102.9
		C521,102.9,521,102.9,521,102.9z"/>
	<path d="M902.4,133c3,3.2,2.3,6.4,1,8.5c-2.9,0.7-5,0.6-6.4,1.6c-2.3,1.7-2.6,4.1-1.2,7c1.1,2.4,1.3,5.3,1.7,8
		c0.1,0.7-0.6,1.9-1.3,2.3c-0.4,0.3-1.5-0.4-2.2-0.8c-0.6-0.4-1-1.5-1.5-1.6c-4.6-0.3-4-3.5-4-6.6c0-2.8-0.4-5.7-0.6-8.5
		c-0.3-3.3,1.9-5.1,5.2-4.2C896,139.5,901.2,136.4,902.4,133z"/>
	<path d="M813.4,118.4c-2.9-3.2-3-7.2-3.2-11.1c-0.2-2.6,0.3-5.2,0.1-7.8c-0.3-3.2,1.1-5.3,3.7-6.5c1.5-0.6,3.6-1,4.9-0.4
		c0.9,0.4,1.4,2.6,1.5,4.1c0.4,4.9,0.4,9.9,0.7,14.8c0.2,2.9,0.1,5.3-3.9,5.2C816.1,116.6,814.9,117.6,813.4,118.4z M819.7,111.9
		c-1.4-1.1-2.3-2.2-3.1-2.2c-0.6,0-1.9,1.4-1.8,2.1c0.1,0.9,1.2,1.8,1.8,2.6C817.4,113.7,818.2,113.1,819.7,111.9z M817.1,100.1
		c-1.1-0.8-2.2-1.8-2.5-1.6c-0.8,0.6-1.7,1.5-1.9,2.5c-0.1,0.5,1,1.3,1.5,1.9C814.9,102.1,815.8,101.3,817.1,100.1z"/>
	<path d="M223.4,135.4c-6.3,5.5-4.6,11.6-4.8,17.1c-0.2,5.3-0.1,5.9-5.6,8.9c-1.6-6.1-1.7-11.8,2.3-17.2c0.9-1.2,1.1-4.3,0.3-5
		c-1.5-1.4-3.9-1.7-6-2.2c-0.3-0.1-1.3,1.1-1.3,1.8c-0.2,2.1-0.2,4.2-0.2,6.3c0,1.5,0,3,0,4.5c-0.5,0-0.9,0-1.4,0.1
		c-0.3-6.1-0.6-12.1-0.9-18.4c-0.5,0.1,0-0.1,0.2,0c3.7,2.6,7.7,3,12.1,2.5C219.5,133.5,221.1,134.6,223.4,135.4z"/>
	<path d="M626.7,55.2c-1.4-0.8-3-1.3-4.2-2.3c-3-2.5-2.7-8.9,0.5-11.3c1.8-1.3,9.3-0.2,10.8,1.7c1.5,1.9,3.2,3.7,4.4,5.9
		c1.5,2.7,0.5,4.2-2.6,4.6c-3,0.3-5.9,0.5-8.9,0.7C626.7,54.6,626.7,54.9,626.7,55.2z"/>
	<path d="M700.8,79c0.9-0.6,2-1.4,3.3-2.3c0.4,0.9,0.8,1.4,0.8,1.9c0.2,9.1,0.4,18.2,0.5,27.3c0.1,5.6-0.6,11.3,0.2,16.7
		c0.5,3.2,0.6,5.8-1.3,8.7c-1.6-1.4-3.3-2.8-4.9-4.2c0-0.2-0.1-0.6,0-0.7c2.7-3.2,2.9-6.7,2.6-10.9c-0.7-10.3-0.4-20.7-0.5-31
		C701.3,82.7,701,81,700.8,79z"/>
	<path d="M866,193.1c4.6-2.7,9.2-5.4,13.9-7.9c1.3-0.7,3.2-0.9,4.7-0.6c3.6,0.6,4.1-1.1,3.6-4.1c-0.4-2.6-0.5-5.2-0.2-7.9
		c6,9.9,4,20.6,3.6,31.4c-3.7,0.4-7.1,0.7-11.4,1.1c1.1-0.8,1.3-1.1,1.6-1.2c6.9-3.1,7.7-4.6,6.5-11.9c-0.9-5.4-4.4-7.2-9.2-4.6
		c-2.9,1.6-5.7,3.5-8.5,5.2c-1.2,0.7-2.6,1.2-3.9,1.8C866.5,194,866.2,193.5,866,193.1z"/>
	<path d="M324,236.1c-0.9-1.6-1.7-3.3-2.6-4.9c-1-1.6-2.1-3.1-3.2-4.7c0.4-0.3,0.8-0.7,1.2-1c2.2,2.1,4.4,4.3,6.7,6.3
		c4,3.4,6.9,8.6,13.6,7.6c2.1-0.3,4.5,1,7.9,1.8c-1.8,1.9-3.1,3.2-4.3,4.5c0.2,0.3,0.3,0.6,0.5,0.7c1.1,0.9,2.3,1.7,3.2,2.8
		c0.3,0.3-0.5,1.4-0.8,2.2c-1.5-0.6-3-1.1-4.4-1.8c-0.5-0.2-1.2-1-1.4-0.9c-4.3,2.1-3.2-1.4-4.1-3.5c-0.8-1.9-2.9-3.3-4.7-4.6
		C329.1,239,326.5,237.6,324,236.1z"/>
	<path d="M878.2,342.6c0.1-0.3,0.1-0.5,0.1-0.6c0.3-2.2,0-6,1-6.4c2.9-1,6.3-0.7,9.5-0.8c0.5,0,1.5,0.6,1.5,0.9
		c0,3.6,0.4,7.5-0.6,10.8c-0.9,3.2-4,3.8-7.3,2.5C879.2,347.9,877.4,346.1,878.2,342.6z"/>
	<path d="M1088.4,264.1c-0.3,0.6-0.5,1.2-0.8,1.4c-6.1,3.6-12.1,7.2-18.2,10.8c-3.3,1.9-6.8,3.6-9.7,6c-2.8,2.3-5.6,1.8-8.7,1.3
		c5.6-3.3,9.4-8.6,16.3-10.2c5-1.1,9.4-5.3,13.8-8.5C1083.5,263,1085.7,262.7,1088.4,264.1z"/>
	<path d="M633.9,84.5c0.6,2.7,1.6,5.3,1.7,8c0.1,1-1.6,2.7-2.8,3c-2.4,0.6-4.9,0.6-7.4,0.5c-0.7,0-1.5-1-2-1.8
		c-0.6-1.1-0.8-2.3-1.4-3.4c-2-4.4-0.8-6.8,4-6.9c1.2,0,2.4,1.3,3.5,2.2c0.6,0.5,0.7,1.4,1.4,2.8c0.7-1.9,1.2-3,1.7-4.2
		C633.1,84.7,633.5,84.6,633.9,84.5z"/>
	<path d="M859,173.3c-2.1,1.1-4.4,2.1-6.3,3.4c-4,2.7-8.1,5.5-11.8,8.5c-2,1.6-7.2,3.2-9.4,1.9c-0.5-0.3-0.7-2.2-0.4-2.5
		c2.6-2.2,5.3-4.5,8.2-6.1c5.2-2.8,10.4-5.8,16.5-6.2c0.9-0.1,1.9-0.1,2.8-0.2C858.7,172.6,858.8,172.9,859,173.3z"/>
	<path d="M686.1,318.8c0.6-2.3,1.6-3.7,4.4-2.9c0.8,0.3,1.9,0.2,2.7,0c2.5-0.6,4.9-1,6.8,1.4c0.2,0.3,0.6,0.5,1,0.5
		c6.1-0.3,12.2-0.6,18.2-1c1.9-0.1,3.7-1.4,5.5-1.2c3.7,0.4,7.2,1.4,11.3,2.3C733.3,320.1,691.7,320.5,686.1,318.8z"/>
	<path d="M425.5,287.5c1.1-0.3,2.2-0.7,3.4-0.9c1.5-0.2,3.6-0.3,2.5-2.4c-0.6-1.2-2.9-2.8-3.7-2.5c-4.2,1.5-7.8,0.2-11.6-1.1
		c-3.2-1.1-6.5-1.8-10.6-2.9c1.3-0.9,1.8-1.5,2.2-1.5c7.4,0.8,14.8,1.6,22.1,2.8c1.3,0.2,3.3,1.9,3.4,3.1c0.3,2.4,0.4,5.6-1,7.2
		c-1,1.1-4.4,0.2-6.7,0.2C425.5,288.8,425.5,288.1,425.5,287.5z"/>
	<path d="M318.3,238c0.7,2,1.4,4,1.9,6c0.2,1.1,0.3,2.8-0.3,3.2c-1.4,1.1-3.2,1.7-4.9,2.4c0-1.3,0-2.6,0-3.9c0.3,0,0.6,0,0.9-0.1
		c-0.4-0.7-0.8-1.5-1.3-2.2c-1.4-2.1-2.7-1.7-3.3,0.5c-0.6,2.4-2,2.6-4.1,2.6c-1.7,0-3.3,1-5,1.6c-0.9,0.3-1.8,0.7-2.7,0.8
		c-0.2,0-1-1.1-0.8-1.4c0.4-0.8,1-1.8,1.8-2.1c3.3-1.5,6.8-2.9,10.2-4.3C313.2,240.1,315.7,239.1,318.3,238z"/>
	<path d="M964.1,320.9c-1,0.5-1.9,1.3-2.9,1.4c-10,1-20,1.8-30,2.7c-1.3,0.1-2.6,0.5-3.7,1.1c-2.4,1.3-3.1,0.5-3.1-2.1
		c5.4-0.4,10.7-0.7,16-1.2c1.6-0.2,3.2-0.9,4.7-1.4c0.2-0.1,0.4-0.4,0.6-0.4c6.1-0.5,12.1-0.9,18.2-1.4
		C963.9,320,964,320.5,964.1,320.9z"/>
	<path d="M782.4,180.3c-0.1,0.2-0.6,1.4-1.2,1.4c-2.7,0.1-5.4,0-8.1-0.3c-0.8-0.1-1.6-1.1-2-1.9c-0.8-1.5-1.3-3.2-1.7-4.8
		c-0.2-0.6,0.2-1.3,0.4-1.9c0.5,0.1,1.1,0.3,1.6,0.4c1.4,0.3,2.9,1.2,4.1,0.9C780.4,172.8,782.2,174.1,782.4,180.3z"/>
	<path d="M956.3,342.4c-6-1.7-6.5,2.1-7.1,6c-0.2,1.1-1.3,2-2,3c-0.8-1.1-2.4-2.3-2.2-3.2c0.5-3.2,1-6.7,2.5-9.5
		C948.8,336.3,954.9,338.4,956.3,342.4z"/>
	<path d="M947.2,156.2c1.9-0.2,3.8-0.4,5.7-0.6c0.4,4.4,0.9,8.7,1.3,13.1C947.1,166.6,945.5,163.7,947.2,156.2z"/>
	<path d="M826.2,212.6c4,0.9,3.8,4.7,4.9,7.3c2.2,5.6,3.7,11.5,5.5,17.2c0.2,0.7,0.2,1.4,0.3,2.2
		C834.7,238.5,825.8,216.1,826.2,212.6z"/>
	<path d="M830.1,358c-1.6,0-3.1,0.1-4.7,0c-6-0.4-12.1-0.9-18.1-1.5c-1-0.1-1.9-1-2.9-1.6c0.9-0.7,2-2.1,2.8-2
		c5,0.6,10,1.6,14.9,2.4c2.7,0.4,5.4,0.8,8.1,1.2C830.3,357.1,830.2,357.5,830.1,358z"/>
	<path d="M408.3,240.8c8.3-2.4,16.7-4.8,25-7.2c0.3,0.4,0.5,0.9,0.8,1.3c-1.2,0.8-2.3,1.9-3.6,2.3c-4.9,1.6-9.9,3-14.9,4.6
		c-2.5,0.8-4.8,1.6-7.1,0.2C408.4,241.6,408.4,241.2,408.3,240.8z"/>
	<path d="M828,145.3c-0.3-10.5-0.6-21.1-0.9-31.6c0.3-0.1,0.5-0.2,0.8-0.4c0.5,1.6,1.5,3.2,1.5,4.8c0.2,5.1,0.2,10.2,0.2,15.3
		c0,3.9,0,7.8,0,11.8C829.1,145.3,828.6,145.3,828,145.3z"/>
	<path d="M354.6,242.9c10.9,0.4,21.8,0.9,32.7,1.3c0,0.2,0,0.5,0,0.7c-10.9,0-21.8,0-32.7,0C354.6,244.3,354.6,243.6,354.6,242.9z"
		/>
	<path d="M986.4,183.2c-0.5,3.5-0.9,6.9-1.4,10.6c-2.3,0-4.4,0-7.1,0c2.7-3.9,2.4-9.2,7.2-11.1C985.6,182.9,986,183.1,986.4,183.2z"
		/>
	<path d="M861,210.1c-2.6-5.4,0.9-9.2,3.8-13.1c-0.4,1.3-0.8,2.7-1.1,4c-1,4.2-0.5,4.7,3.7,4.2c1.4-0.1,2.8,0,4.3,0.7
		C868.3,207.2,865,208.5,861,210.1z"/>
	<path d="M907.1,346.8c-2.2,5-7.6-0.2-10.4,3.5c-0.5-1.8-0.9-2.7-1-3.6c-0.1-1.3-0.1-2.5-0.1-3.8c1.3,0.2,2.7,0.1,3.9,0.5
		C901.8,344.2,904.1,345.4,907.1,346.8z"/>
	<path d="M743.2,107.7c1.1-1.5,2-2.8,2.9-4.2c1.1,1,2.6,1.9,3.1,3.2c0.6,1.5,0.6,3.5,0.2,5.1c-0.2,0.5-3,0.9-4,0.3
		C744.4,111.5,744.1,109.6,743.2,107.7z"/>
	<path d="M822.5,202.8c-8.4,0.2-6.3,9.5-11.7,13.1c1.7-4.8,2.8-9.1,4.7-13c0.8-1.6,3-2.7,4.8-3.5c0.4-0.2,1.7,1.5,2.6,2.4
		C822.7,202.1,822.6,202.5,822.5,202.8z"/>
	<path d="M167.5,160.6c-2.4,5.1-4.8,10.2-7.6,16C159.1,172.2,163.9,161.1,167.5,160.6z"/>
	<path d="M937.8,347.2c-2.9,0.9-5.8,1.9-8.8,2.5c-0.4,0.1-1.3-2.2-2.3-4c4.2,0,7.4,0,10.6,0C937.5,346.1,937.6,346.6,937.8,347.2z"
		/>
	<path d="M761.3,14.4c-6.7,0.9-7.5-0.7-4.3-8.7C758.5,8.8,759.8,11.5,761.3,14.4z"/>
	<path d="M440.9,157.5c0.7,1.9,1.8,3.7,2,5.6c0.1,1.6-1,3.2-1.5,4.8c-0.6-0.1-1.1-0.2-1.7-0.4c0-3.2,0-6.4,0-9.7
		C440.1,157.8,440.5,157.6,440.9,157.5z"/>
	<path d="M575.8,115.2c-2.7,0-5.4,0.1-8.1-0.1c-0.8-0.1-1.6-1-2.4-1.6c0.8-0.6,1.7-1.9,2.4-1.8c2.9,0.6,5.7,1.5,8.5,2.3
		C576.1,114.4,575.9,114.8,575.8,115.2z"/>
	<path d="M736.1-0.6c-0.9,1.8-1.4,3.8-2.7,5.2c-0.4,0.4-2.9-0.6-4-1.5c-1.4-1.2-1.4-2.6,1-3c1.5-0.3,3-0.8,4.5-1.2
		C735.3-0.9,735.7-0.8,736.1-0.6z"/>
	<path d="M804.2,119.7c-0.5-4.3-0.9-8.5-1.5-13.8C806,109,806.6,115.5,804.2,119.7z"/>
	<path d="M373.7,93.2c-0.6-5.2-1-9.3-1.6-14.2C375.6,82.1,376.5,89,373.7,93.2z"/>
	<path d="M124.3,134.9c0.9,2.8,2.9,5.1,0.1,7.3c-0.4,0.3-2.6-0.8-3.2-1.7C119.5,137.7,121.4,136.2,124.3,134.9z"/>
	<path d="M623.6,283.7c5.1-0.2,10.2-0.5,16.1-0.8c-5.6,4.2-11,0.4-16,2.2C623.7,284.6,623.6,284.1,623.6,283.7z"/>
	<path d="M908.1,172.3c-1,3.3-1.7,6-2.7,8.5c-0.3,0.7-1.6,0.9-2.5,1.4c-0.4-0.8-1.3-1.9-1-2.2C903.7,177.5,905.8,175.2,908.1,172.3z
		"/>
	<path d="M744.3,95.7c-1.6-2.1-2.7-3.3-3.3-4.7c-0.1-0.3,1.6-1.4,2.4-2.1c0.9,1.1,2,2.2,2.6,3.5C746.2,92.8,745.2,93.8,744.3,95.7z"
		/>
	<path d="M687.4,146.3c-1-1.7-2.1-2.7-2.1-3.7c0-0.8,1.4-1.6,2.2-2.4c0.9,1,2.1,2,2.6,3.2C690.3,143.7,688.8,144.9,687.4,146.3z"/>
	<path d="M611.7,90.1c-0.5-2.3-1.1-4.5-1.4-6.8c-0.1-0.4,1.1-1.2,1.7-1.4c0.3-0.1,1.3,0.9,1.3,1.4c0.2,2.2,0.1,4.4,0.1,6.7
		C612.9,90,612.3,90.1,611.7,90.1z"/>
	<path d="M706.4,70.3c-3-1.3-4.3-5.2-2.7-6.8c0.4-0.4,1.2-0.6,1.6-0.5c0.5,0.1,1,0.8,1.1,1.3C706.5,66.2,706.4,68.1,706.4,70.3z"/>
	<path d="M806,158.8c-1-3.6-2-7.3-3-10.9c0.5-0.1,0.9-0.3,1.4-0.4c1.1,3.6,2.1,7.3,3.2,10.9C807.1,158.6,806.6,158.7,806,158.8z"/>
	<path d="M609.8,282.6c2.9,0,5.9,0,8.8,0c-3,3.8-5.9,0.9-8.9,0.9C609.8,283.2,609.8,282.9,609.8,282.6z"/>
	<path d="M885.5,234.7c-2.6,2-5.2,3.9-7.8,5.9c-0.3-0.4-0.5-0.8-0.8-1.2c2.6-2.1,5.1-4.2,7.7-6.2
		C884.9,233.7,885.2,234.2,885.5,234.7z"/>
	<path d="M602.5,191.1c-1.8,0.9-2.9,1.9-3.7,1.7c-0.8-0.1-1.9-1.3-2.1-2.2c-0.1-0.5,1.4-2,2-1.9
		C599.7,188.9,600.7,189.9,602.5,191.1z"/>
	<path d="M406.8,243.5c-2.8,0-5.6,0-8.4,0c0-0.3,0-0.7,0-1c2.8,0,5.5,0,8.3,0C406.8,242.9,406.8,243.2,406.8,243.5z"/>
	<path d="M300.3,226.5c-1.2-1.1-1.9-1.7-2.6-2.4c0.9-0.7,1.8-1.8,2.8-2.1c0.7-0.2,1.7,0.9,2.5,1.4
		C302.2,224.4,301.4,225.3,300.3,226.5z"/>
	<path d="M880.6,155.6c-0.2-2.4-0.4-4.7-0.6-7.4c2.9,1.3,3.1,2.6,1.7,7.3C881.3,155.5,881,155.5,880.6,155.6z"/>
	<path d="M822.1,173.3c1.8-2.8,3.6-5.6,5.4-8.4c0.4,0.2,0.7,0.4,1.1,0.7c-1.7,2.8-3.4,5.7-5.2,8.5
		C823,173.8,822.5,173.5,822.1,173.3z"/>
	<path d="M750.5,42.2c-2.5-2.9-0.7-5.5,0.8-8.4C753.8,37.2,750.8,39.6,750.5,42.2C750.4,42.2,750.5,42.2,750.5,42.2z"/>
	<path d="M805.4,124.2c0,2.7,0,5.3,0,8c-0.3,0-0.6,0-1,0c0-2.6,0-5.3,0-7.9C804.8,124.3,805.1,124.3,805.4,124.2z"/>
	<path d="M413.2,285.8c-1.7-0.2-3.5-0.5-5.2-0.7c0.2-0.7,0.4-2.1,0.5-2.1c1.7,0.2,3.4,0.6,5,1C413.5,284.6,413.4,285.2,413.2,285.8z
		"/>
	<path d="M682,83.9c0.2,1.6,0.4,3.1,0.6,4.7c-0.9-0.1-2.6-0.1-2.6-0.4c-0.2-1.4,0-2.8,0.1-4.2C680.6,84,681.3,83.9,682,83.9z"/>
	<path d="M642.3,89.2c-0.3-2-0.6-4.1-0.9-6.1c0.5-0.1,0.9-0.1,1.4-0.2c2.4,1.7,1.3,4,0.8,6.2C643.2,89.1,642.8,89.2,642.3,89.2z"/>
	<path d="M581.4,110.3c1.2,0.2,1.4,0.2,1.4,0.3c0.4,2,0.8,4.1,1.2,6.1c-0.6,0.1-1.6,0.2-1.6,0.1C582,114.8,581.7,112.7,581.4,110.3z
		"/>
	<path d="M627.4,183.4c1.7,0.8,3.5,1.6,5.2,2.4c-0.3,0.6-0.5,1.2-0.8,1.7c-1.8-0.8-3.5-1.5-5.3-2.3
		C626.8,184.6,627.1,184,627.4,183.4z"/>
	<path d="M690.1,156.7c0.8-1.3,1.6-2.5,2.4-3.8c0.6,0.7,1.9,1.7,1.8,1.9c-0.7,1.1-1.7,2.1-2.6,3.1
		C691.1,157.5,690.6,157.1,690.1,156.7z"/>
	<path d="M170.9,228.8c2.2,0,4.5,0,6.7,0c0,0.4,0,0.8,0,1.1c-2.2,0-4.5,0-6.7,0C170.8,229.5,170.9,229.1,170.9,228.8z"/>
	<path d="M820.6,230.9c-1.6,0.4-3.2,0.8-4.8,1.1c-0.1,0-0.4-1-0.6-1.5c1.6-0.5,3.2-1.1,4.8-1.6C820.3,229.5,820.5,230.2,820.6,230.9
		z"/>
	<path d="M855.6,136.1c0.2,2,0.4,3.9,0.7,5.9c-0.7,0.1-1.3,0.2-2,0.2c-0.2-1.9-0.4-3.9-0.6-5.8C854.3,136.4,855,136.3,855.6,136.1z"
		/>
	<path d="M479,51.6c-0.4,2.8,2.8,5.6-1.3,6.6c-1.4,0.3-4.5-1.2-4.5-1.9C473.1,53,476.3,53.2,479,51.6z"/>
	<path d="M426.9,50.9c-3.1,1.3-6.2,2.7-9.6,4.1c0.4-5.3,0.8-5.5,9-5.3C426.5,50.1,426.7,50.5,426.9,50.9z"/>
	<path d="M58.1,117.1c-0.9,1.1-1.8,2.2-2.7,3.3c-1.2-1.6-2.6-3-3.6-4.8c-0.2-0.3,1.6-2.2,2.6-2.5C57.1,112.7,57.5,114.6,58.1,117.1z
		"/>
	<path d="M801.6,64.9c2.6-1.8,5.2-3.6,7.8-5.4c0.2,0.3,0.4,0.6,0.6,0.9c-2.3,2.3-3.7,5.7-7.6,5.9C802.2,65.8,801.9,65.4,801.6,64.9z
		"/>
</g>
</svg>
